<svg width="35" height="35" viewBox="0 0 35 35" fill="none" xmlns="http://www.w3.org/2000/svg">
<g clip-path="url(#clip0_4304_10041)">
<path d="M18.6521 30.625L4.375 16.3479V19.2646C4.375 20.0375 4.68125 20.7812 5.23542 21.3208L16.5958 32.6812C17.7333 33.8187 19.5854 33.8187 20.7229 32.6812L29.7792 23.625C30.9167 22.4875 30.9167 20.6354 29.7792 19.4979L18.6521 30.625Z" fill="url(#paint0_linear_4304_10041)"/>
<path d="M16.5958 25.3896C17.7333 26.5271 19.5854 26.5271 20.7229 25.3896L29.7792 16.3333C30.9167 15.1958 30.9167 13.3437 29.7792 12.2062L18.4187 0.845833C17.8648 0.305232 17.1219 0.0018161 16.3479 0L7.29167 0C5.6875 0 4.375 1.3125 4.375 2.91667V11.9729C4.375 12.7458 4.68125 13.4896 5.23542 14.0292L16.5958 25.3896ZM10.5729 4.375C11.0564 4.375 11.5201 4.56706 11.8619 4.90892C12.2038 5.25078 12.3958 5.71445 12.3958 6.19792C12.3958 6.68138 12.2038 7.14505 11.8619 7.48691C11.5201 7.82878 11.0564 8.02083 10.5729 8.02083C10.0894 8.02083 9.62578 7.82878 9.28392 7.48691C8.94206 7.14505 8.75 6.68138 8.75 6.19792C8.75 5.71445 8.94206 5.25078 9.28392 4.90892C9.62578 4.56706 10.0894 4.375 10.5729 4.375Z" fill="url(#paint1_linear_4304_10041)"/>
</g>
<defs>
<linearGradient id="paint0_linear_4304_10041" x1="4.375" y1="24.9411" x2="30.6323" y2="24.9411" gradientUnits="userSpaceOnUse">
<stop stop-color="#001FCC"/>
<stop offset="1" stop-color="#9D00FF"/>
</linearGradient>
<linearGradient id="paint1_linear_4304_10041" x1="4.375" y1="13.1214" x2="30.6323" y2="13.1214" gradientUnits="userSpaceOnUse">
<stop stop-color="#001FCC"/>
<stop offset="1" stop-color="#9D00FF"/>
</linearGradient>
<clipPath id="clip0_4304_10041">
<rect width="35" height="35" fill="white"/>
</clipPath>
</defs>
</svg>
