<svg width="40" height="40" viewBox="0 0 40 40" fill="none" xmlns="http://www.w3.org/2000/svg">
<path d="M21.3914 5.26829C21.4834 5.19711 21.5658 5.11418 21.6364 5.02162H25.9064L25.9647 5.01995C26.2672 5.00344 26.5705 5.00344 26.873 5.01995H26.9364C27.8853 5.01684 28.8229 5.22701 29.6797 5.63495C31.2455 6.24967 32.5999 7.3043 33.5797 8.67162C34.3219 9.70683 34.8267 10.8929 35.0583 12.1454C35.2899 13.398 35.2426 14.6861 34.9197 15.9183L29.4514 10.5233C29.2173 10.2925 28.9018 10.1631 28.573 10.1633H20.6147C20.3593 10.1737 20.1133 10.2621 19.9097 10.4166L16.7697 12.7966C16.4287 13.0557 15.9989 13.1689 15.5746 13.1114C15.1503 13.0539 14.7661 12.8304 14.5064 12.49C14.3782 12.324 14.2843 12.1343 14.2301 11.9318C14.1758 11.7293 14.1624 11.518 14.1904 11.3102C14.2185 11.1025 14.2875 10.9024 14.3935 10.7215C14.4996 10.5406 14.6405 10.3826 14.808 10.2566L21.3914 5.26829ZM13.1647 23.725L13.1414 23.7466L11.518 25.36L11.4964 25.38C11.2121 25.6503 10.8337 25.7993 10.4415 25.7956C10.0492 25.7919 9.67378 25.6356 9.39469 25.36C9.25486 25.222 9.14382 25.0576 9.06804 24.8763C8.99225 24.6951 8.95323 24.5006 8.95323 24.3041C8.95323 24.1077 8.99225 23.9132 9.06804 23.7319C9.14382 23.5507 9.25486 23.3863 9.39469 23.2483L11.018 21.635C11.3008 21.355 11.6826 21.1979 12.0805 21.1979C12.4784 21.1979 12.8603 21.355 13.143 21.635C13.4217 21.9099 13.5804 22.284 13.5845 22.6755C13.5885 23.067 13.4376 23.4442 13.1647 23.725ZM12.6797 26.555C12.4067 26.8357 12.2558 27.2129 12.2599 27.6044C12.264 27.9959 12.4226 28.37 12.7014 28.645C13.288 29.2283 14.2397 29.2283 14.8264 28.645L16.4497 27.0316C16.6071 26.8756 16.7275 26.6863 16.8023 26.4777C16.8771 26.2691 16.9043 26.0464 16.882 25.8259C16.8596 25.6054 16.7882 25.3928 16.6731 25.2034C16.5579 25.0141 16.4019 24.8529 16.2164 24.7316C15.9316 24.5443 15.5918 24.4587 15.2523 24.489C14.9128 24.5193 14.5935 24.6635 14.3464 24.8983L14.3247 24.9216L12.7014 26.5333L12.6797 26.555ZM9.16636 19.0116C9.3062 19.1496 9.41723 19.314 9.49301 19.4952C9.5688 19.6765 9.60782 19.871 9.60782 20.0675C9.60782 20.2639 9.5688 20.4584 9.49301 20.6397C9.41723 20.8209 9.3062 20.9853 9.16636 21.1233L7.54303 22.7366C7.26028 23.0166 6.87845 23.1737 6.48053 23.1737C6.08261 23.1737 5.70077 23.0166 5.41803 22.7366C5.27819 22.5986 5.16716 22.4342 5.09137 22.253C5.01559 22.0717 4.97656 21.8772 4.97656 21.6808C4.97656 21.4843 5.01559 21.2898 5.09137 21.1086C5.16716 20.9273 5.27819 20.7629 5.41803 20.625L7.04136 19.0116C7.3241 18.7316 7.70594 18.5746 8.10386 18.5746C8.50178 18.5746 8.88362 18.7316 9.16636 19.0116ZM19.7547 28.2066C19.8945 28.3446 20.0056 28.509 20.0813 28.6902C20.1571 28.8715 20.1962 29.066 20.1962 29.2625C20.1962 29.4589 20.1571 29.6534 20.0813 29.8347C20.0056 30.0159 19.8945 30.1803 19.7547 30.3183L18.1314 31.9316C17.8486 32.2116 17.4668 32.3687 17.0689 32.3687C16.6709 32.3687 16.2891 32.2116 16.0064 31.9316C15.7845 31.7124 15.6374 31.4289 15.586 31.1213C15.5345 30.8137 15.5813 30.4978 15.7197 30.2183L15.7214 30.215C15.7942 30.0686 15.8905 29.9352 16.0064 29.82L17.6297 28.2066C17.9124 27.9266 18.2943 27.7696 18.6922 27.7696C19.0901 27.7696 19.4719 27.9266 19.7547 28.2066ZM8.90636 8.04995C10.0131 6.95062 11.355 6.11702 12.8309 5.61205C14.3068 5.10709 15.8782 4.94395 17.4264 5.13495L13.2997 8.26329C12.8695 8.5882 12.5079 8.9951 12.2357 9.46049C11.9636 9.92588 11.7863 10.4405 11.7141 10.9748C11.6419 11.5091 11.6762 12.0523 11.815 12.5733C11.9539 13.0942 12.1945 13.5825 12.523 14.01C13.1854 14.8734 14.1625 15.4398 15.2409 15.5856C16.3194 15.7314 17.4118 15.4448 18.2797 14.7883L21.0864 12.6633H28.0614L33.9064 18.43L33.9664 18.4966L35.883 20.4133C36.3142 20.8504 36.5612 21.4363 36.5733 22.0502C36.5854 22.6641 36.3616 23.2592 35.948 23.713C35.5343 24.1668 34.9624 24.4447 34.3501 24.4894C33.7377 24.5341 33.1315 24.3422 32.6564 23.9533L32.4964 23.7933L32.3964 23.7066L30.5747 21.8866C30.4978 21.807 30.4059 21.7435 30.3042 21.6999C30.2025 21.6562 30.0932 21.6332 29.9825 21.6322C29.8719 21.6313 29.7621 21.6524 29.6597 21.6943C29.5573 21.7362 29.4643 21.798 29.386 21.8763C29.3078 21.9545 29.2459 22.0476 29.204 22.15C29.1621 22.2524 29.141 22.3621 29.142 22.4728C29.1429 22.5834 29.1659 22.6928 29.2096 22.7945C29.2533 22.8961 29.3168 22.9881 29.3964 23.065L31.313 24.9816C31.383 25.0505 31.4541 25.1166 31.5264 25.18L31.5997 25.2533C31.7602 25.4104 31.8879 25.5977 31.9756 25.8045C32.0632 26.0112 32.1089 26.2333 32.1101 26.4579C32.1113 26.6825 32.068 26.905 31.9826 27.1128C31.8972 27.3205 31.7715 27.5092 31.6127 27.668C31.4539 27.8268 31.2652 27.9525 31.0575 28.0379C30.8498 28.1232 30.6272 28.1666 30.4026 28.1654C30.1781 28.1642 29.956 28.1184 29.7492 28.0308C29.5424 27.9432 29.3551 27.8154 29.198 27.655L28.9147 27.3733C28.7972 27.2561 28.6473 27.1766 28.4843 27.1451C28.3213 27.1136 28.1527 27.1315 27.9999 27.1965C27.8472 27.2615 27.7173 27.3707 27.627 27.51C27.5367 27.6492 27.49 27.8123 27.493 27.9783C27.4906 28.091 27.5111 28.203 27.5532 28.3076C27.5953 28.4121 27.6582 28.5071 27.738 28.5866L28.1097 28.9583C28.2629 29.1025 28.3855 29.276 28.4704 29.4685C28.5552 29.661 28.6006 29.8686 28.6038 30.0789C28.6069 30.2893 28.5678 30.4981 28.4888 30.6931C28.4098 30.888 28.2924 31.0651 28.1436 31.2139C27.9949 31.3626 27.8178 31.48 27.6228 31.5591C27.4278 31.6381 27.219 31.6772 27.0086 31.674C26.7983 31.6709 26.5907 31.6255 26.3982 31.5406C26.2057 31.4558 26.0322 31.3331 25.888 31.18H25.8864L25.8664 31.1583L25.5164 30.8083C25.4393 30.7303 25.3476 30.6684 25.2464 30.6262C25.1453 30.584 25.0368 30.5622 24.9272 30.5622C24.8176 30.5622 24.7091 30.584 24.6079 30.6262C24.5068 30.6684 24.4151 30.7303 24.338 30.8083C24.1818 30.9646 24.094 31.1765 24.094 31.3975C24.094 31.6184 24.1818 31.8303 24.338 31.9866L24.7014 32.3516C24.851 32.4994 24.97 32.6751 25.0517 32.8689C25.1333 33.0626 25.1761 33.2705 25.1774 33.4808C25.1787 33.691 25.1386 33.8995 25.0593 34.0942C24.9801 34.289 24.8633 34.4662 24.7155 34.6158C24.5678 34.7654 24.392 34.8844 24.1983 34.9661C24.0046 35.0478 23.7966 35.0905 23.5864 35.0918C23.3761 35.0931 23.1677 35.053 22.9729 34.9738C22.7782 34.8945 22.601 34.7777 22.4514 34.63L20.0664 32.3633L20.9414 31.4933C21.2361 31.2013 21.4701 30.8539 21.6297 30.471C21.7894 30.0881 21.8716 29.6773 21.8716 29.2625C21.8716 28.8476 21.7894 28.4368 21.6297 28.0539C21.4701 27.671 21.2361 27.3236 20.9414 27.0316C20.63 26.7214 20.2574 26.4793 19.8474 26.321C19.4373 26.1626 18.9988 26.0913 18.5597 26.1116C18.5791 25.6743 18.5067 25.2377 18.3471 24.8301C18.1875 24.4225 17.9442 24.0528 17.633 23.745C17.3218 23.4349 16.9495 23.193 16.5398 23.0346C16.1301 22.8762 15.6918 22.8048 15.253 22.825C15.2722 22.3879 15.1997 21.9517 15.0401 21.5443C14.8805 21.137 14.6374 20.7676 14.3264 20.46C13.9305 20.0666 13.4381 19.7843 12.8987 19.6413C12.3593 19.4982 11.7918 19.4995 11.253 19.645C11.1604 18.9591 10.8434 18.3233 10.3514 17.8366C9.80306 17.2931 9.07627 16.967 8.30578 16.9185C7.5353 16.8701 6.77339 17.1027 6.16136 17.5733C5.76838 15.8836 5.81431 14.1214 6.29479 12.4545C6.77527 10.7875 7.67431 9.27127 8.90636 8.04995Z" fill="url(#paint0_linear_4439_10443)"/>
<defs>
<linearGradient id="paint0_linear_4439_10443" x1="4.97656" y1="20.0497" x2="36.5738" y2="20.0497" gradientUnits="userSpaceOnUse">
<stop stop-color="#001FCC"/>
<stop offset="1" stop-color="#9D00FF"/>
</linearGradient>
</defs>
</svg>
