<svg width="32" height="32" viewBox="0 0 32 32" fill="none" xmlns="http://www.w3.org/2000/svg">
<g clip-path="url(#clip0_4305_10081)">
<path d="M29.4188 0.5875C29.6063 0.78125 29.75 1 29.85 1.23125C29.95 1.4625 30 1.71875 30 1.99375V8C30 9.10625 29.1063 10 28 10C26.8937 10 26 9.10625 26 8V6.83125L19.4125 13.4125C18.675 14.15 17.4875 14.2 16.6938 13.5188L11 8.63125L5.3 13.5188C4.4625 14.2375 3.2 14.1375 2.48125 13.3C1.7625 12.4625 1.8625 11.2 2.7 10.4812L9.7 4.48125C10.45 3.8375 11.5562 3.8375 12.3062 4.48125L17.9 9.275L23.1688 4H22C20.8937 4 20 3.10625 20 2C20 0.89375 20.8937 0 22 0H28C28.55 0 29.05 0.225 29.4125 0.58125L29.4188 0.5875ZM0 19C0 17.3438 1.34375 16 3 16H29C30.6562 16 32 17.3438 32 19V29C32 30.6562 30.6562 32 29 32H3C1.34375 32 0 30.6562 0 29V19ZM3 26V29H6C6 27.3438 4.65625 26 3 26ZM6 19H3V22C4.65625 22 6 20.6562 6 19ZM29 26C27.3438 26 26 27.3438 26 29H29V26ZM26 19C26 20.6562 27.3438 22 29 22V19H26ZM20 24C20 22.9391 19.5786 21.9217 18.8284 21.1716C18.0783 20.4214 17.0609 20 16 20C14.9391 20 13.9217 20.4214 13.1716 21.1716C12.4214 21.9217 12 22.9391 12 24C12 25.0609 12.4214 26.0783 13.1716 26.8284C13.9217 27.5786 14.9391 28 16 28C17.0609 28 18.0783 27.5786 18.8284 26.8284C19.5786 26.0783 20 25.0609 20 24Z" fill="url(#paint0_linear_4305_10081)"/>
</g>
<defs>
<linearGradient id="paint0_linear_4305_10081" x1="0" y1="16" x2="32" y2="16" gradientUnits="userSpaceOnUse">
<stop stop-color="#001FCC"/>
<stop offset="1" stop-color="#9D00FF"/>
</linearGradient>
<clipPath id="clip0_4305_10081">
<rect width="32" height="32" fill="white"/>
</clipPath>
</defs>
</svg>
