<svg width="40" height="40" viewBox="0 0 40 40" fill="none" xmlns="http://www.w3.org/2000/svg">
<path d="M20 11.25C20 12.9076 19.3415 14.4973 18.1694 15.6694C16.9973 16.8415 15.4076 17.5 13.75 17.5C12.0924 17.5 10.5027 16.8415 9.33058 15.6694C8.15848 14.4973 7.5 12.9076 7.5 11.25C7.5 9.5924 8.15848 8.00269 9.33058 6.83058C10.5027 5.65848 12.0924 5 13.75 5C15.4076 5 16.9973 5.65848 18.1694 6.83058C19.3415 8.00269 20 9.5924 20 11.25ZM28.75 15C27.414 14.999 26.0851 15.1927 24.805 15.575C24.2294 14.8364 23.8727 13.951 23.7757 13.0196C23.6786 12.0882 23.8451 11.1483 24.2561 10.3069C24.6671 9.46547 25.3061 8.75639 26.1004 8.26039C26.8947 7.7644 27.8123 7.50143 28.7488 7.50143C29.6852 7.50143 30.6028 7.7644 31.3971 8.26039C32.1914 8.75639 32.8304 9.46547 33.2414 10.3069C33.6524 11.1483 33.8189 12.0882 33.7218 13.0196C33.6248 13.951 33.2681 14.8364 32.6925 15.575C31.4132 15.1929 30.0851 14.9992 28.75 15ZM7.5 20H18.1425C16.1071 22.4612 14.9956 25.5562 15 28.75C15 29.585 15.0725 30.3992 15.2175 31.1925C14.7525 31.2308 14.2633 31.25 13.75 31.25C3.75 31.25 3.75 23.9375 3.75 23.9375V23.75C3.75 22.7554 4.14509 21.8016 4.84835 21.0983C5.55161 20.3951 6.50544 20 7.5 20ZM40 28.75C40 31.7337 38.8147 34.5952 36.7049 36.705C34.5952 38.8147 31.7337 40 28.75 40C25.7663 40 22.9048 38.8147 20.795 36.705C18.6853 34.5952 17.5 31.7337 17.5 28.75C17.5 25.7663 18.6853 22.9048 20.795 20.795C22.9048 18.6853 25.7663 17.5 28.75 17.5C31.7337 17.5 34.5952 18.6853 36.7049 20.795C38.8147 22.9048 40 25.7663 40 28.75ZM29.94 22.15C29.8678 21.8899 29.7123 21.6606 29.4974 21.4972C29.2825 21.3338 29.02 21.2453 28.75 21.2453C28.48 21.2453 28.2175 21.3338 28.0026 21.4972C27.7877 21.6606 27.6322 21.8899 27.56 22.15L26.3675 25.98H22.5C21.29 25.98 20.785 27.5975 21.765 28.34L24.89 30.7075L23.6975 34.5375C23.3225 35.7375 24.6425 36.7375 25.6225 35.995L28.7475 33.6275L31.8725 35.995C32.8525 36.7375 34.1725 35.7375 33.7975 34.5375L32.605 30.7075L35.73 28.34C36.71 27.5975 36.205 25.98 34.995 25.98H31.13L29.94 22.15Z" fill="url(#paint0_linear_4908_10369)"/>
<defs>
<linearGradient id="paint0_linear_4908_10369" x1="3.75" y1="22.5" x2="40" y2="22.5" gradientUnits="userSpaceOnUse">
<stop stop-color="#001FCC"/>
<stop offset="1" stop-color="#9D00FF"/>
</linearGradient>
</defs>
</svg>
