<svg width="40" height="40" viewBox="0 0 40 40" fill="none" xmlns="http://www.w3.org/2000/svg">
<path d="M16.6693 6.6665C20.3359 6.6665 23.3359 9.6665 23.3359 13.3332C23.3359 16.9998 20.3359 19.9998 16.6693 19.9998C13.0026 19.9998 10.0026 16.9998 10.0026 13.3332C10.0026 9.6665 13.0026 6.6665 16.6693 6.6665ZM28.3359 34.9998L31.3359 37.9498C32.1693 38.7832 33.3359 38.1165 33.3359 37.1332V29.9998L38.0026 24.3332C38.1883 24.0856 38.3014 23.7911 38.3292 23.4828C38.357 23.1746 38.2984 22.8647 38.16 22.5878C38.0216 22.311 37.8088 22.0781 37.5455 21.9154C37.2822 21.7527 36.9788 21.6665 36.6693 21.6665H25.0026C23.6693 21.6665 22.8359 23.3332 23.6693 24.3332L28.3359 29.9998V34.9998ZM25.0026 31.1665L21.1693 26.4998C20.5026 25.6665 20.1693 24.6665 20.1693 23.6665C19.0026 23.3332 17.8359 23.3332 16.6693 23.3332C9.33594 23.3332 3.33594 26.3332 3.33594 29.9998V33.3332H25.0026V31.1665Z" fill="url(#paint0_linear_4908_10375)"/>
<defs>
<linearGradient id="paint0_linear_4908_10375" x1="3.33594" y1="22.4972" x2="38.3359" y2="22.4972" gradientUnits="userSpaceOnUse">
<stop stop-color="#001FCC"/>
<stop offset="1" stop-color="#9D00FF"/>
</linearGradient>
</defs>
</svg>
