<svg width="40" height="40" viewBox="0 0 40 40" fill="none" xmlns="http://www.w3.org/2000/svg">
<path d="M20 11.25C20 12.9076 19.3415 14.4973 18.1694 15.6694C16.9973 16.8415 15.4076 17.5 13.75 17.5C12.0924 17.5 10.5027 16.8415 9.33058 15.6694C8.15848 14.4973 7.5 12.9076 7.5 11.25C7.5 9.5924 8.15848 8.00269 9.33058 6.83058C10.5027 5.65848 12.0924 5 13.75 5C15.4076 5 16.9973 5.65848 18.1694 6.83058C19.3415 8.00269 20 9.5924 20 11.25ZM28.75 15C27.414 14.999 26.0851 15.1927 24.805 15.575C24.2294 14.8364 23.8727 13.951 23.7757 13.0196C23.6786 12.0882 23.8451 11.1483 24.2561 10.3069C24.6671 9.46547 25.3061 8.75639 26.1004 8.26039C26.8947 7.7644 27.8123 7.50143 28.7488 7.50143C29.6852 7.50143 30.6028 7.7644 31.3971 8.26039C32.1914 8.75639 32.8304 9.46547 33.2414 10.3069C33.6524 11.1483 33.8189 12.0882 33.7218 13.0196C33.6248 13.951 33.2681 14.8364 32.6925 15.575C31.4132 15.1929 30.0851 14.9992 28.75 15ZM7.5 20H18.1425C16.1071 22.4612 14.9956 25.5562 15 28.75C15 29.585 15.0725 30.3992 15.2175 31.1925C14.7525 31.2308 14.2633 31.25 13.75 31.25C3.75 31.25 3.75 23.9375 3.75 23.9375V23.75C3.75 22.7554 4.14509 21.8016 4.84835 21.0983C5.55161 20.3951 6.50544 20 7.5 20ZM17.5 28.75C17.5 31.7337 18.6853 34.5952 20.795 36.705C22.9048 38.8147 25.7663 40 28.75 40C31.7337 40 34.5952 38.8147 36.7049 36.705C38.8147 34.5952 40 31.7337 40 28.75C40 25.7663 38.8147 22.9048 36.7049 20.795C34.5952 18.6853 31.7337 17.5 28.75 17.5C25.7663 17.5 22.9048 18.6853 20.795 20.795C18.6853 22.9048 17.5 25.7663 17.5 28.75ZM33.75 21.25C34.0815 21.25 34.3995 21.3817 34.6339 21.6161C34.8683 21.8505 35 22.1685 35 22.5V26.25C35 26.5815 34.8683 26.8995 34.6339 27.1339C34.3995 27.3683 34.0815 27.5 33.75 27.5H30C29.6685 27.5 29.3505 27.3683 29.1161 27.1339C28.8817 26.8995 28.75 26.5815 28.75 26.25C28.75 25.9185 28.8817 25.6005 29.1161 25.3661C29.3505 25.1317 29.6685 25 30 25H31.17C30.4552 24.6042 29.6544 24.3896 28.8375 24.375C28.1658 24.3632 27.4987 24.4868 26.8759 24.7385C26.253 24.9902 25.6873 25.3648 25.2125 25.84C24.975 26.0583 24.6623 26.1763 24.3399 26.1694C24.0174 26.1625 23.71 26.0312 23.4821 25.8029C23.2542 25.5747 23.1233 25.2672 23.1169 24.9447C23.1104 24.6222 23.2289 24.3097 23.4475 24.0725C24.6148 22.9051 26.1347 22.1556 27.7714 21.9399C29.4081 21.7243 31.0702 22.0548 32.5 22.88V22.5C32.5 22.1685 32.6317 21.8505 32.8661 21.6161C33.1005 21.3817 33.4185 21.25 33.75 21.25ZM31.56 35.08C30.5034 35.5067 29.3636 35.687 28.2269 35.6073C27.0902 35.5276 25.9867 35.19 25 34.62V35C25 35.3315 24.8683 35.6495 24.6339 35.8839C24.3995 36.1183 24.0815 36.25 23.75 36.25C23.4185 36.25 23.1005 36.1183 22.8661 35.8839C22.6317 35.6495 22.5 35.3315 22.5 35V31.25C22.5 30.9185 22.6317 30.6005 22.8661 30.3661C23.1005 30.1317 23.4185 30 23.75 30H27.5C27.8315 30 28.1495 30.1317 28.3839 30.3661C28.6183 30.6005 28.75 30.9185 28.75 31.25C28.75 31.5815 28.6183 31.8995 28.3839 32.1339C28.1495 32.3683 27.8315 32.5 27.5 32.5H26.33C26.455 32.57 26.5842 32.6342 26.7175 32.6925C27.6411 33.1034 28.6676 33.2247 29.6615 33.0403C30.6554 32.856 31.5701 32.3747 32.285 31.66C32.5208 31.4323 32.8365 31.3063 33.1643 31.3092C33.492 31.312 33.8055 31.4435 34.0373 31.6752C34.269 31.907 34.4005 32.2205 34.4033 32.5482C34.4062 32.876 34.2802 33.1917 34.0525 33.4275C33.34 34.14 32.4925 34.705 31.56 35.08Z" fill="url(#paint0_linear_4439_10330)"/>
<defs>
<linearGradient id="paint0_linear_4439_10330" x1="3.75" y1="22.5" x2="40" y2="22.5" gradientUnits="userSpaceOnUse">
<stop stop-color="#001FCC"/>
<stop offset="1" stop-color="#9D00FF"/>
</linearGradient>
</defs>
</svg>
