<svg width="40" height="40" viewBox="0 0 40 40" fill="none" xmlns="http://www.w3.org/2000/svg">
<path d="M13.75 17.5C15.4076 17.5 16.9973 16.8415 18.1694 15.6694C19.3415 14.4973 20 12.9076 20 11.25C20 9.5924 19.3415 8.00269 18.1694 6.83058C16.9973 5.65848 15.4076 5 13.75 5C12.0924 5 10.5027 5.65848 9.33058 6.83058C8.15848 8.00269 7.5 9.5924 7.5 11.25C7.5 12.9076 8.15848 14.4973 9.33058 15.6694C10.5027 16.8415 12.0924 17.5 13.75 17.5ZM33.75 12.5C33.75 13.8261 33.2232 15.0979 32.2855 16.0355C31.3479 16.9732 30.0761 17.5 28.75 17.5C27.4239 17.5 26.1521 16.9732 25.2145 16.0355C24.2768 15.0979 23.75 13.8261 23.75 12.5C23.75 11.1739 24.2768 9.90215 25.2145 8.96447C26.1521 8.02678 27.4239 7.5 28.75 7.5C30.0761 7.5 31.3479 8.02678 32.2855 8.96447C33.2232 9.90215 33.75 11.1739 33.75 12.5ZM20.57 20.0425C19.9552 20.4644 19.3728 20.9315 18.8275 21.44C17.7277 22.453 16.8006 23.6385 16.0825 24.95C15.4525 26.1275 15 27.4575 15 28.75C15 29.535 15.165 30.355 15.4575 31.175C14.9258 31.225 14.3567 31.25 13.75 31.25C3.75 31.25 3.75 23.9375 3.75 23.9375V23.75C3.75 22.7554 4.14509 21.8016 4.84835 21.0983C5.55161 20.3951 6.50544 20 7.5 20H20C20.1933 20 20.3833 20.0142 20.57 20.0425ZM28.75 20C21.84 20 17.5 25.795 17.5 28.75C17.5 31.75 21.8475 37.5 28.75 37.5C35.6525 37.5 40 31.705 40 28.75C40 25.75 35.6525 20 28.75 20ZM28.75 35C27.0924 35 25.5027 34.3415 24.3306 33.1694C23.1585 31.9973 22.5 30.4076 22.5 28.75C22.5 27.0924 23.1585 25.5027 24.3306 24.3306C25.5027 23.1585 27.0924 22.5 28.75 22.5C30.4076 22.5 31.9973 23.1585 33.1694 24.3306C34.3415 25.5027 35 27.0924 35 28.75C35 30.4076 34.3415 31.9973 33.1694 33.1694C31.9973 34.3415 30.4076 35 28.75 35ZM32.5 28.75C32.5 29.7446 32.1049 30.6984 31.4017 31.4017C30.6984 32.1049 29.7446 32.5 28.75 32.5C27.7554 32.5 26.8016 32.1049 26.0983 31.4017C25.3951 30.6984 25 29.7446 25 28.75C25 27.7554 25.3951 26.8016 26.0983 26.0983C26.8016 25.3951 27.7554 25 28.75 25C29.7446 25 30.6984 25.3951 31.4017 26.0983C32.1049 26.8016 32.5 27.7554 32.5 28.75Z" fill="url(#paint0_linear_4443_10584)"/>
<defs>
<linearGradient id="paint0_linear_4443_10584" x1="3.75" y1="21.25" x2="40" y2="21.25" gradientUnits="userSpaceOnUse">
<stop stop-color="#001FCC"/>
<stop offset="1" stop-color="#9D00FF"/>
</linearGradient>
</defs>
</svg>
