<svg width="40" height="40" viewBox="0 0 40 40" fill="none" xmlns="http://www.w3.org/2000/svg">
<path d="M13.3359 18.3333C15.104 18.3333 16.7997 17.631 18.05 16.3807C19.3002 15.1305 20.0026 13.4348 20.0026 11.6667C20.0026 9.89856 19.3002 8.20286 18.05 6.95262C16.7997 5.70238 15.104 5 13.3359 5C11.5678 5 9.87213 5.70238 8.62189 6.95262C7.37165 8.20286 6.66927 9.89856 6.66927 11.6667C6.66927 13.4348 7.37165 15.1305 8.62189 16.3807C9.87213 17.631 11.5678 18.3333 13.3359 18.3333ZM28.3359 18.3333C29.662 18.3333 30.9338 17.8065 31.8715 16.8689C32.8092 15.9312 33.3359 14.6594 33.3359 13.3333C33.3359 12.0073 32.8092 10.7355 31.8715 9.7978C30.9338 8.86012 29.662 8.33333 28.3359 8.33333C27.0099 8.33333 25.7381 8.86012 24.8004 9.7978C23.8627 10.7355 23.3359 12.0073 23.3359 13.3333C23.3359 14.6594 23.8627 15.9312 24.8004 16.8689C25.7381 17.8065 27.0099 18.3333 28.3359 18.3333ZM7.08594 21.6667C6.09138 21.6667 5.13755 22.0618 4.43429 22.765C3.73103 23.4683 3.33594 24.4221 3.33594 25.4167V25.8333C3.33594 25.8333 3.33594 33.3333 13.3359 33.3333C15.6526 33.3333 17.4326 32.9317 18.7993 32.3117C18.491 31.2918 18.3349 30.2321 18.3359 29.1667C18.3359 26.405 19.3693 23.885 21.0693 21.9717C20.6014 21.7679 20.0962 21.664 19.5859 21.6667H7.08594ZM38.3359 29.1667C38.3359 31.5978 37.3702 33.9294 35.6511 35.6485C33.932 37.3676 31.6004 38.3333 29.1693 38.3333C26.7381 38.3333 24.4065 37.3676 22.6875 35.6485C20.9684 33.9294 20.0026 31.5978 20.0026 29.1667C20.0026 26.7355 20.9684 24.4039 22.6875 22.6849C24.4065 20.9658 26.7381 20 29.1693 20C31.6004 20 33.932 20.9658 35.6511 22.6849C37.3702 24.4039 38.3359 26.7355 38.3359 29.1667ZM22.5026 29.1667C22.5026 30.5567 22.9276 31.8467 23.6543 32.9133L32.9159 23.6517C31.9137 22.9707 30.7448 22.5757 29.5349 22.5093C28.325 22.4428 27.1199 22.7074 26.0491 23.2745C24.9783 23.8416 24.0823 24.6898 23.4574 25.728C22.8326 26.7661 22.5025 27.955 22.5026 29.1667ZM29.1693 35.8333C30.381 35.8335 31.5698 35.5034 32.608 34.8785C33.6461 34.2536 34.4944 33.3576 35.0615 32.2868C35.6286 31.216 35.8931 30.0109 35.8267 28.801C35.7602 27.5911 35.3652 26.4222 34.6843 25.42L25.4226 34.6817C26.5279 35.4323 27.8332 35.8336 29.1693 35.8333Z" fill="url(#paint0_linear_4496_12792)"/>
<defs>
<linearGradient id="paint0_linear_4496_12792" x1="3.33594" y1="21.6667" x2="38.3359" y2="21.6667" gradientUnits="userSpaceOnUse">
<stop stop-color="#001FCC"/>
<stop offset="1" stop-color="#9D00FF"/>
</linearGradient>
</defs>
</svg>
