<svg width="40" height="40" viewBox="0 0 40 40" fill="none" xmlns="http://www.w3.org/2000/svg">
<path d="M13 16.3333C14.7681 16.3333 16.4638 15.631 17.714 14.3807C18.9643 13.1305 19.6667 11.4348 19.6667 9.66667C19.6667 7.89856 18.9643 6.20286 17.714 4.95262C16.4638 3.70238 14.7681 3 13 3C11.2319 3 9.5362 3.70238 8.28595 4.95262C7.03571 6.20286 6.33333 7.89856 6.33333 9.66667C6.33333 11.4348 7.03571 13.1305 8.28595 14.3807C9.5362 15.631 11.2319 16.3333 13 16.3333ZM28 16.3333C29.3261 16.3333 30.5979 15.8065 31.5355 14.8689C32.4732 13.9312 33 12.6594 33 11.3333C33 10.0073 32.4732 8.73548 31.5355 7.7978C30.5979 6.86012 29.3261 6.33333 28 6.33333C26.6739 6.33333 25.4021 6.86012 24.4645 7.7978C23.5268 8.73548 23 10.0073 23 11.3333C23 12.6594 23.5268 13.9312 24.4645 14.8689C25.4021 15.8065 26.6739 16.3333 28 16.3333ZM6.75 19.6667C5.75544 19.6667 4.80161 20.0618 4.09835 20.765C3.39509 21.4683 3 22.4221 3 23.4167V23.8333C3 23.8333 3 31.3333 13 31.3333C15.3167 31.3333 17.0967 30.9317 18.4633 30.3117C18.1551 29.2918 17.999 28.2321 18 27.1667C18 24.405 19.0333 21.885 20.7333 19.9717C20.2655 19.7679 19.7603 19.664 19.25 19.6667H6.75ZM38 27.1667C38 29.5978 37.0342 31.9294 35.3151 33.6485C33.5961 35.3676 31.2645 36.3333 28.8333 36.3333C26.4022 36.3333 24.0706 35.3676 22.3515 33.6485C20.6324 31.9294 19.6667 29.5978 19.6667 27.1667C19.6667 24.7355 20.6324 22.4039 22.3515 20.6849C24.0706 18.9658 26.4022 18 28.8333 18C31.2645 18 33.5961 18.9658 35.3151 20.6849C37.0342 22.4039 38 24.7355 38 27.1667ZM33.2433 23.2433L27.1667 29.3217L24.4233 26.5767C24.2669 26.4202 24.0546 26.3323 23.8333 26.3323C23.612 26.3323 23.3998 26.4202 23.2433 26.5767C23.0869 26.7331 22.9989 26.9454 22.9989 27.1667C22.9989 27.388 23.0869 27.6002 23.2433 27.7567L26.5767 31.09C26.6541 31.1676 26.746 31.2292 26.8473 31.2712C26.9485 31.3132 27.0571 31.3348 27.1667 31.3348C27.2763 31.3348 27.3848 31.3132 27.4861 31.2712C27.5873 31.2292 27.6793 31.1676 27.7567 31.09L34.4233 24.4233C34.5798 24.2669 34.6677 24.0546 34.6677 23.8333C34.6677 23.612 34.5798 23.3998 34.4233 23.2433C34.2669 23.0869 34.0546 22.9989 33.8333 22.9989C33.612 22.9989 33.3998 23.0869 33.2433 23.2433Z" fill="url(#paint0_linear_4496_12790)"/>
<defs>
<linearGradient id="paint0_linear_4496_12790" x1="3" y1="19.6667" x2="38" y2="19.6667" gradientUnits="userSpaceOnUse">
<stop stop-color="#001FCC"/>
<stop offset="1" stop-color="#9D00FF"/>
</linearGradient>
</defs>
</svg>
