<svg width="20" height="20" viewBox="0 0 20 20" fill="none" xmlns="http://www.w3.org/2000/svg">
<path d="M6.39149 9.99978C8.07903 9.99978 9.44705 8.63176 9.44705 6.94423C9.44705 5.25669 8.07903 3.88867 6.39149 3.88867C4.70396 3.88867 3.33594 5.25669 3.33594 6.94423C3.33594 8.63176 4.70396 9.99978 6.39149 9.99978Z" fill="url(#paint0_linear_4316_10526)"/>
<path d="M13.3368 7.2222C15.0243 7.2222 16.3924 5.85418 16.3924 4.16664C16.3924 2.4791 15.0243 1.11108 13.3368 1.11108C11.6493 1.11108 10.2812 2.4791 10.2812 4.16664C10.2812 5.85418 11.6493 7.2222 13.3368 7.2222Z" fill="url(#paint1_linear_4316_10526)"/>
<path d="M19.1141 12.3313C18.213 9.94016 15.893 8.3335 13.3407 8.3335C11.7663 8.3335 10.283 8.94794 9.16406 9.97794C11.2241 10.7657 12.9252 12.3879 13.7296 14.5213C13.8541 14.8502 13.9096 15.1913 13.9318 15.5324C15.2774 15.4768 16.6085 15.2435 17.893 14.8146C18.3996 14.6457 18.8196 14.2735 19.0496 13.7935C19.2718 13.3268 19.2952 12.8068 19.1152 12.3313H19.1141Z" fill="url(#paint2_linear_4316_10526)"/>
<path d="M12.1666 15.1089C11.2655 12.7178 8.94545 11.1111 6.39323 11.1111C3.84101 11.1111 1.52101 12.7178 0.619896 15.1089C0.439896 15.5855 0.46323 16.1044 0.685452 16.5711C0.914341 17.0511 1.33545 17.4233 1.84212 17.5922C3.31434 18.0833 4.84656 18.3333 6.39323 18.3333C7.9399 18.3333 9.47212 18.0833 10.9443 17.5922C11.451 17.4233 11.871 17.0511 12.101 16.5711C12.3232 16.1044 12.3466 15.5844 12.1666 15.1089Z" fill="url(#paint3_linear_4316_10526)"/>
<defs>
<linearGradient id="paint0_linear_4316_10526" x1="3.33594" y1="6.94423" x2="9.44705" y2="6.94423" gradientUnits="userSpaceOnUse">
<stop stop-color="#001FCC"/>
<stop offset="1" stop-color="#9D00FF"/>
</linearGradient>
<linearGradient id="paint1_linear_4316_10526" x1="10.2812" y1="4.16664" x2="16.3924" y2="4.16664" gradientUnits="userSpaceOnUse">
<stop stop-color="#001FCC"/>
<stop offset="1" stop-color="#9D00FF"/>
</linearGradient>
<linearGradient id="paint2_linear_4316_10526" x1="9.16406" y1="11.9329" x2="19.2351" y2="11.9329" gradientUnits="userSpaceOnUse">
<stop stop-color="#001FCC"/>
<stop offset="1" stop-color="#9D00FF"/>
</linearGradient>
<linearGradient id="paint3_linear_4316_10526" x1="0.5" y1="14.7222" x2="12.2865" y2="14.7222" gradientUnits="userSpaceOnUse">
<stop stop-color="#001FCC"/>
<stop offset="1" stop-color="#9D00FF"/>
</linearGradient>
</defs>
</svg>
