<svg width="40" height="40" viewBox="0 0 40 40" fill="none" xmlns="http://www.w3.org/2000/svg">
<path d="M28.75 15H5V28.75C5 30.4076 5.65848 31.9973 6.83058 33.1694C8.00269 34.3415 9.5924 35 11.25 35H16.5C15.4302 32.9036 14.9164 30.5677 15.0078 28.216C15.0992 25.8642 15.7928 23.5752 17.0221 21.5682C18.2514 19.5612 19.9753 17.9033 22.0287 16.7533C24.0822 15.6033 26.3964 14.9996 28.75 15ZM35 11.25C35 9.5924 34.3415 8.00269 33.1694 6.83058C31.9973 5.65848 30.4076 5 28.75 5H11.25C9.5924 5 8.00269 5.65848 6.83058 6.83058C5.65848 8.00269 5 9.5924 5 11.25V12.5H35V11.25ZM40 28.75C40 31.7337 38.8147 34.5952 36.705 36.705C34.5952 38.8147 31.7337 40 28.75 40C25.7663 40 22.9048 38.8147 20.795 36.705C18.6853 34.5952 17.5 31.7337 17.5 28.75C17.5 25.7663 18.6853 22.9048 20.795 20.795C22.9048 18.6853 25.7663 17.5 28.75 17.5C31.7337 17.5 34.5952 18.6853 36.705 20.795C38.8147 22.9048 40 25.7663 40 28.75ZM28.75 22.5C28.4185 22.5 28.1005 22.6317 27.8661 22.8661C27.6317 23.1005 27.5 23.4185 27.5 23.75V28.75C27.5 29.0815 27.6317 29.3995 27.8661 29.6339C28.1005 29.8683 28.4185 30 28.75 30H32.5C32.8315 30 33.1495 29.8683 33.3839 29.6339C33.6183 29.3995 33.75 29.0815 33.75 28.75C33.75 28.4185 33.6183 28.1005 33.3839 27.8661C33.1495 27.6317 32.8315 27.5 32.5 27.5H30V23.75C30 23.4185 29.8683 23.1005 29.6339 22.8661C29.3995 22.6317 29.0815 22.5 28.75 22.5Z" fill="url(#paint0_linear_4908_10556)"/>
<defs>
<linearGradient id="paint0_linear_4908_10556" x1="5" y1="22.5" x2="40" y2="22.5" gradientUnits="userSpaceOnUse">
<stop stop-color="#001FCC"/>
<stop offset="1" stop-color="#9D00FF"/>
</linearGradient>
</defs>
</svg>
