<svg width="40" height="40" viewBox="0 0 40 40" fill="none" xmlns="http://www.w3.org/2000/svg">
<g clip-path="url(#clip0_4911_10609)">
<path d="M11.6641 31.6667V36.3333C11.6641 37.4379 12.5595 38.3333 13.6641 38.3333H36.3307C37.4353 38.3333 38.3307 37.4379 38.3307 36.3333V13.6667C38.3307 12.5621 37.4353 11.6667 36.3307 11.6667H28.3307H1.66406M38.3307 18.3333H28.3307M21.6641 0V5M8.33073 0V5M6.66406 18.3333H9.9974M13.3307 18.3333H23.3307M6.66406 25H9.9974M13.3307 25H23.3307M3.66406 5H26.3307C27.4353 5 28.3307 5.89543 28.3307 7V29.6667C28.3307 30.7712 27.4353 31.6667 26.3307 31.6667H3.66406C2.55949 31.6667 1.66406 30.7712 1.66406 29.6667V7C1.66406 5.89543 2.55949 5 3.66406 5Z" stroke="url(#paint0_linear_4911_10609)" stroke-width="2"/>
</g>
<defs>
<linearGradient id="paint0_linear_4911_10609" x1="1.66406" y1="19.1667" x2="38.3307" y2="19.1667" gradientUnits="userSpaceOnUse">
<stop stop-color="#001FCC"/>
<stop offset="1" stop-color="#9D00FF"/>
</linearGradient>
<clipPath id="clip0_4911_10609">
<rect width="40" height="40" fill="white"/>
</clipPath>
</defs>
</svg>
