<svg width="45" height="45" viewBox="0 0 45 45" fill="none" xmlns="http://www.w3.org/2000/svg">
<path d="M22.0781 9.14062C24.4687 9.14062 26.2969 6.46875 26.2969 4.21875C26.2969 1.89844 24.3984 0 22.0781 0C19.7578 0 17.8594 1.89844 17.8594 4.21875C17.8594 6.46875 19.7578 9.14062 22.0781 9.14062Z" fill="url(#paint0_linear_4910_10565)"/>
<path d="M14.9063 45H30.0938L31.6406 26.6484H13.3594L14.9063 45Z" fill="url(#paint1_linear_4910_10565)"/>
<path d="M22.0078 16.5234C21.5859 16.5234 21.2344 16.875 21.2344 17.2969C21.2344 17.7188 21.5859 18.0703 22.0078 18.0703C22.4297 18.0703 22.7813 17.7188 22.7813 17.2969C22.7813 16.875 22.4297 16.5234 22.0078 16.5234Z" fill="url(#paint2_linear_4910_10565)"/>
<path d="M13.9922 22.1484H15.1172H15.3984H28.7578H29.0391H30.1641C30.2344 21.9375 30.2344 21.6562 30.2344 21.375V21.3047C29.8828 21.164 29.4609 21.0234 28.8984 21.0234H24.75C23.1328 21.0234 21.8672 20.3906 21.4453 19.4062C20.5312 19.125 19.8984 18.2812 19.8984 17.3672C19.8984 16.1719 20.8828 15.1875 22.0781 15.1875C23.2734 15.1875 24.2578 16.1719 24.2578 17.3672C24.2578 18.2109 23.8359 18.914 23.1328 19.2656C23.4844 19.4765 24.0469 19.6875 24.8203 19.6875H28.8281C28.8984 19.6875 28.9687 19.6875 29.0391 19.6875C29.5312 19.6875 29.9531 19.7578 30.375 19.8984L30.7969 14.8359C30.7969 13.8515 29.4609 12.9375 26.7188 11.3203C26.3672 11.1094 26.0156 10.8984 25.8047 10.7578C25.4531 10.5469 25.2422 10.4062 22.0781 11.9531C18.9141 10.4062 18.7031 10.5469 18.3516 10.7578C18.1406 10.8984 17.7891 11.1094 17.4375 11.3203C14.6953 12.8672 13.3594 13.7812 13.3594 14.8359L13.8516 21.2344C13.9219 21.5859 13.9219 21.8672 13.9922 22.1484Z" fill="url(#paint3_linear_4910_10565)"/>
<path d="M30.8672 21.7969V22.0781H32.2031V21.7969C32.2031 20.8828 31.4297 20.1797 30.3047 19.8281L30.1641 21.2344C30.6562 21.4453 30.8672 21.6562 30.8672 21.7969Z" fill="url(#paint4_linear_4910_10565)"/>
<path d="M33.8203 23.4844H11.1797V25.3125H33.8203V23.4844Z" fill="url(#paint5_linear_4910_10565)"/>
<defs>
<linearGradient id="paint0_linear_4910_10565" x1="17.8594" y1="4.57031" x2="26.2969" y2="4.57031" gradientUnits="userSpaceOnUse">
<stop stop-color="#001FCC"/>
<stop offset="1" stop-color="#9D00FF"/>
</linearGradient>
<linearGradient id="paint1_linear_4910_10565" x1="13.3594" y1="35.8242" x2="31.6406" y2="35.8242" gradientUnits="userSpaceOnUse">
<stop stop-color="#001FCC"/>
<stop offset="1" stop-color="#9D00FF"/>
</linearGradient>
<linearGradient id="paint2_linear_4910_10565" x1="21.2344" y1="17.2969" x2="22.7813" y2="17.2969" gradientUnits="userSpaceOnUse">
<stop stop-color="#001FCC"/>
<stop offset="1" stop-color="#9D00FF"/>
</linearGradient>
<linearGradient id="paint3_linear_4910_10565" x1="13.3594" y1="16.3891" x2="30.7969" y2="16.3891" gradientUnits="userSpaceOnUse">
<stop stop-color="#001FCC"/>
<stop offset="1" stop-color="#9D00FF"/>
</linearGradient>
<linearGradient id="paint4_linear_4910_10565" x1="30.1641" y1="20.9531" x2="32.2031" y2="20.9531" gradientUnits="userSpaceOnUse">
<stop stop-color="#001FCC"/>
<stop offset="1" stop-color="#9D00FF"/>
</linearGradient>
<linearGradient id="paint5_linear_4910_10565" x1="11.1797" y1="24.3984" x2="33.8203" y2="24.3984" gradientUnits="userSpaceOnUse">
<stop stop-color="#001FCC"/>
<stop offset="1" stop-color="#9D00FF"/>
</linearGradient>
</defs>
</svg>
