<svg width="20" height="20" viewBox="0 0 20 20" fill="none" xmlns="http://www.w3.org/2000/svg">
<path fill-rule="evenodd" clip-rule="evenodd" d="M17.0067 8.21659C16.9581 8.21425 16.9095 8.21342 16.8608 8.21409H14.8317C13.1717 8.21409 11.75 9.53159 11.75 11.2499C11.75 12.9683 13.1717 14.2858 14.8325 14.2858H16.86C16.9108 14.2858 16.96 14.2858 17.0058 14.2824C17.3485 14.2605 17.6715 14.1148 17.9146 13.8724C18.1578 13.63 18.3045 13.3075 18.3275 12.9649C18.3308 12.9158 18.3308 12.8633 18.3308 12.8149V9.68493C18.3308 9.63659 18.3308 9.58409 18.3275 9.53493C18.3046 9.19249 18.1579 8.87006 17.915 8.62768C17.672 8.3853 17.3492 8.2395 17.0067 8.21743M14.6542 12.0599C15.0817 12.0599 15.4292 11.6983 15.4292 11.2508C15.4292 10.8033 15.0817 10.4416 14.6542 10.4416C14.2267 10.4416 13.88 10.8033 13.88 11.2508C13.88 11.6983 14.2258 12.0599 14.6542 12.0599Z" fill="url(#paint0_linear_4316_10483)"/>
<path fill-rule="evenodd" clip-rule="evenodd" d="M16.8591 15.5001C16.887 15.4991 16.9147 15.5047 16.9401 15.5164C16.9655 15.5281 16.9877 15.5456 17.0051 15.5675C17.0224 15.5894 17.0344 15.6151 17.04 15.6425C17.0456 15.6698 17.0447 15.6981 17.0374 15.7251C16.8757 16.3018 16.6199 16.7934 16.2091 17.2068C15.6082 17.8126 14.8457 18.0818 13.9041 18.2093C12.9891 18.3334 11.8207 18.3334 10.3441 18.3334H8.64656C7.17073 18.3334 6.00156 18.3334 5.08656 18.2093C4.1449 18.0818 3.3824 17.8126 2.78156 17.2068C2.18073 16.6026 1.91406 15.8334 1.7874 14.8851C1.66406 13.9617 1.66406 12.7834 1.66406 11.2959V11.2042C1.66406 9.71675 1.66406 8.53758 1.7874 7.61592C1.91406 6.66675 2.18073 5.90008 2.78073 5.29258C3.38156 4.68758 4.14406 4.41758 5.08573 4.29091C6.00156 4.16675 7.17073 4.16675 8.64656 4.16675H10.3441C11.8199 4.16675 12.9891 4.16675 13.9041 4.29091C14.8457 4.41841 15.6082 4.68758 16.2091 5.29258C16.6199 5.70675 16.8757 6.19841 17.0374 6.77591C17.0446 6.80282 17.0453 6.83103 17.0397 6.85828C17.034 6.88554 17.022 6.91108 17.0046 6.93287C16.9873 6.95466 16.9651 6.97209 16.9398 6.98376C16.9146 6.99543 16.8869 7.00102 16.8591 7.00008H14.8316C12.5532 7.00008 10.5457 8.81425 10.5457 11.2501C10.5457 13.6859 12.5541 15.5001 14.8324 15.5001H16.8591ZM4.67573 7.40508C4.59639 7.40541 4.51789 7.42136 4.44471 7.45203C4.37154 7.48269 4.30512 7.52747 4.24925 7.5838C4.19338 7.64014 4.14915 7.70693 4.11909 7.78035C4.08904 7.85378 4.07373 7.93241 4.07406 8.01175C4.07406 8.34758 4.34323 8.61925 4.67573 8.61925H7.88906C8.2224 8.61925 8.49156 8.34758 8.49156 8.01175C8.49201 7.85144 8.4288 7.6975 8.31584 7.58375C8.20287 7.47001 8.04937 7.40574 7.88906 7.40508H4.67573Z" fill="url(#paint1_linear_4316_10483)"/>
<path d="M6.47656 3.35317L8.10823 2.15067C8.53401 1.83589 9.04955 1.66602 9.57906 1.66602C10.1086 1.66602 10.6241 1.83589 11.0499 2.15067L12.6907 3.35984C12.0041 3.33317 11.2374 3.33317 10.3982 3.33317H8.5899C7.82156 3.33317 7.11573 3.33317 6.47656 3.35317Z" fill="url(#paint2_linear_4316_10483)"/>
<defs>
<linearGradient id="paint0_linear_4316_10483" x1="11.75" y1="11.2498" x2="18.3308" y2="11.2498" gradientUnits="userSpaceOnUse">
<stop stop-color="#001FCC"/>
<stop offset="1" stop-color="#9D00FF"/>
</linearGradient>
<linearGradient id="paint1_linear_4316_10483" x1="1.66406" y1="11.2501" x2="17.0436" y2="11.2501" gradientUnits="userSpaceOnUse">
<stop stop-color="#001FCC"/>
<stop offset="1" stop-color="#9D00FF"/>
</linearGradient>
<linearGradient id="paint2_linear_4316_10483" x1="6.47656" y1="2.51293" x2="12.6907" y2="2.51293" gradientUnits="userSpaceOnUse">
<stop stop-color="#001FCC"/>
<stop offset="1" stop-color="#9D00FF"/>
</linearGradient>
</defs>
</svg>
