<svg width="60" height="47" viewBox="0 0 60 47" fill="none" xmlns="http://www.w3.org/2000/svg">
<path d="M15.6003 9.40013L22.267 16.0668C22.5337 16.3335 22.8003 16.3335 23.3337 16.3335C23.6003 16.3335 24.1337 16.0668 24.4003 16.0668C24.9337 15.5335 24.9337 14.7335 24.4003 14.2001L19.867 9.6668H40.1337L35.867 13.9335C35.6003 14.2001 35.3337 14.7335 35.3337 15.0001C35.3337 15.8001 35.867 16.3335 36.667 16.3335C36.9337 16.3335 37.467 16.0668 37.7337 16.0668L44.4003 9.40013C44.9337 8.8668 44.9337 8.0668 44.4003 7.53346L37.7337 0.866797C37.2003 0.333464 36.4003 0.333464 35.867 0.866797C35.3337 1.40013 35.3337 2.20013 35.867 2.73346L40.1337 7.00013H19.867L24.1337 2.73346C24.667 2.20013 24.667 1.40013 24.1337 0.866797C23.6003 0.333464 22.8003 0.333464 22.267 0.866797L15.6003 7.2668C15.6003 7.2668 15.3337 7.53346 15.3337 7.80013V8.8668C15.3337 9.13346 15.6003 9.13346 15.6003 9.40013ZM19.067 33.4001C21.2003 31.8001 22.8003 29.4001 22.8003 26.4668C22.5337 21.6668 18.8003 17.6668 14.0003 17.6668C9.20033 17.6668 5.46699 21.6668 5.46699 26.2001C5.46699 29.1335 6.80032 31.5335 9.20032 33.1335C4.13366 35.2668 0.666992 40.0668 0.666992 45.6668C0.666992 46.4668 1.20033 47.0001 2.00033 47.0001C2.80033 47.0001 3.33366 46.4668 3.33366 45.6668C3.33366 39.8001 8.13366 35.0001 14.0003 35.0001C19.867 35.0001 24.667 39.8001 24.667 45.6668C24.667 46.4668 25.2003 47.0001 26.0003 47.0001C26.8003 47.0001 27.3337 46.4668 27.3337 45.6668C27.3337 40.0668 23.867 35.2668 19.067 33.4001ZM14.0003 32.3335C10.8003 32.3335 8.13366 29.6668 8.13366 26.4668C8.13366 23.2668 10.8003 20.3335 14.0003 20.3335C17.2003 20.3335 19.867 23.0001 19.867 26.2001C19.867 29.6668 17.2003 32.3335 14.0003 32.3335ZM51.067 33.4001C53.2003 31.8001 54.8003 29.4001 54.8003 26.4668C54.8003 21.6668 50.8003 17.9335 46.267 17.9335C41.7337 17.9335 37.7337 21.9335 37.7337 26.4668C37.7337 29.4001 39.067 31.8001 41.467 33.4001C36.667 35.2668 33.2003 40.0668 33.2003 45.6668C33.2003 46.4668 33.7337 47.0001 34.5337 47.0001C35.3337 47.0001 35.867 46.4668 35.867 45.6668C35.867 39.8001 40.667 35.0001 46.5337 35.0001C52.4003 35.0001 57.2003 39.8001 57.2003 45.6668C57.2003 46.4668 57.7337 47.0001 58.5337 47.0001C59.3337 47.0001 59.867 46.4668 59.867 45.6668C59.3337 40.0668 55.867 35.2668 51.067 33.4001ZM46.0003 32.3335C42.8003 32.3335 40.1337 29.6668 40.1337 26.4668C40.1337 23.2668 42.8003 20.6001 46.0003 20.6001C49.2003 20.6001 51.867 23.2668 51.867 26.4668C51.867 29.6668 49.2003 32.3335 46.0003 32.3335Z" fill="black"/>
</svg>
