<svg width="24" height="24" viewBox="0 0 24 24" fill="none" xmlns="http://www.w3.org/2000/svg">
<g clip-path="url(#clip0_12231_729)">
<path d="M6 15.5H18" stroke="black" stroke-linecap="round"/>
<path d="M6 19H18" stroke="black" stroke-linecap="round"/>
<path d="M12.1 13.22C11.98 13.22 11.88 13.18 11.8 13.1C11.7267 13.02 11.69 12.9233 11.69 12.81V11.86L11.89 12.05C11.4233 12.0433 11.0033 11.9833 10.63 11.87C10.2567 11.75 9.94333 11.6067 9.69 11.44C9.59667 11.38 9.53 11.3033 9.49 11.21C9.45 11.1167 9.43667 11.0233 9.45 10.93C9.47 10.8367 9.51 10.7567 9.57 10.69C9.63 10.6233 9.70333 10.5833 9.79 10.57C9.87667 10.5567 9.97667 10.5833 10.09 10.65C10.2967 10.7833 10.5533 10.9033 10.86 11.01C11.1733 11.1167 11.5533 11.17 12 11.17C12.36 11.17 12.6533 11.1233 12.88 11.03C13.1133 10.9367 13.2833 10.81 13.39 10.65C13.5033 10.49 13.56 10.3033 13.56 10.09C13.56 9.91667 13.52 9.76667 13.44 9.64C13.3667 9.51333 13.2433 9.40667 13.07 9.32C12.8967 9.22667 12.6667 9.15 12.38 9.09L11.35 8.87C10.7433 8.73667 10.29 8.51667 9.99 8.21C9.69667 7.90333 9.55 7.5 9.55 7C9.55 6.60667 9.64333 6.25667 9.83 5.95C10.0233 5.64333 10.29 5.4 10.63 5.22C10.9767 5.04 11.38 4.93667 11.84 4.91L11.69 5.05V4.14C11.69 4.02667 11.7267 3.93 11.8 3.85C11.88 3.77 11.98 3.73 12.1 3.73C12.2133 3.73 12.31 3.77 12.39 3.85C12.47 3.93 12.51 4.02667 12.51 4.14V5.05L12.34 4.91C12.6467 4.91667 12.9733 4.98 13.32 5.1C13.6667 5.21333 13.9633 5.37667 14.21 5.59C14.29 5.65667 14.34 5.73333 14.36 5.82C14.3867 5.90667 14.3867 5.99 14.36 6.07C14.34 6.15 14.3 6.21667 14.24 6.27C14.18 6.32333 14.1033 6.35333 14.01 6.36C13.9167 6.36667 13.8167 6.33333 13.71 6.26C13.4967 6.11333 13.26 5.99667 13 5.91C12.7467 5.82333 12.4433 5.78 12.09 5.78C11.6233 5.78 11.2533 5.89 10.98 6.11C10.7067 6.33 10.57 6.61667 10.57 6.97C10.57 7.23667 10.6533 7.45333 10.82 7.62C10.9867 7.78 11.2667 7.90333 11.66 7.99L12.71 8.21C13.35 8.35 13.8233 8.56667 14.13 8.86C14.4367 9.15333 14.59 9.54333 14.59 10.03C14.59 10.41 14.4933 10.7467 14.3 11.04C14.1067 11.3267 13.84 11.5567 13.5 11.73C13.1667 11.8967 12.78 12 12.34 12.04L12.51 11.85V12.81C12.51 12.9233 12.47 13.02 12.39 13.1C12.3167 13.18 12.22 13.22 12.1 13.22Z" fill="black"/>
<rect x="3.5" y="1.5" width="17" height="20" rx="1.5" stroke="black"/>
</g>
<defs>
<clipPath id="clip0_12231_729">
<rect width="24" height="24" fill="white"/>
</clipPath>
</defs>
</svg>
