<svg width="64" height="64" viewBox="0 0 64 64" fill="none" xmlns="http://www.w3.org/2000/svg">
<path d="M20.6633 43.4288L43.5204 20.5716M2.28613 50.2859C2.28613 51.4968 2.76651 52.6581 3.62184 53.5152C4.47717 54.3722 5.63759 54.8549 6.84842 54.8574H57.1524C58.3632 54.8549 59.5237 54.3722 60.379 53.5152C61.2343 52.6581 61.7147 51.4968 61.7147 50.2859V40.9876C59.7409 40.4524 57.9981 39.2823 56.7556 37.6579C55.5131 36.0335 54.8398 34.0453 54.8398 32.0002C54.8398 29.9551 55.5131 27.9669 56.7556 26.3425C57.9981 24.7182 59.7409 23.548 61.7147 23.0128V13.7145C61.7147 12.5037 61.2343 11.3423 60.379 10.4852C59.5237 9.62819 58.3632 9.14549 57.1524 9.14307H6.84842C5.63759 9.14549 4.47717 9.62819 3.62184 10.4852C2.76651 11.3423 2.28613 12.5037 2.28613 13.7145V22.9945C4.27571 23.5178 6.03599 24.6852 7.29212 26.3144C8.54824 27.9436 9.22949 29.943 9.22949 32.0002C9.22949 34.0574 8.54824 36.0568 7.29212 37.686C6.03599 39.3152 4.27571 40.4826 2.28613 41.0059V50.2859Z" stroke="black" stroke-width="3" stroke-linecap="round" stroke-linejoin="round"/>
<path d="M22.9488 25.1432C23.555 25.1432 24.1364 24.9024 24.565 24.4737C24.9937 24.0451 25.2345 23.4637 25.2345 22.8575C25.2345 22.2513 24.9937 21.6699 24.565 21.2412C24.1364 20.8126 23.555 20.5718 22.9488 20.5718C22.3426 20.5718 21.7612 20.8126 21.3326 21.2412C20.9039 21.6699 20.6631 22.2513 20.6631 22.8575C20.6631 23.4637 20.9039 24.0451 21.3326 24.4737C21.7612 24.9024 22.3426 25.1432 22.9488 25.1432ZM41.2345 43.4289C41.8407 43.4289 42.4221 43.1881 42.8508 42.7595C43.2794 42.3308 43.5202 41.7494 43.5202 41.1432C43.5202 40.537 43.2794 39.9556 42.8508 39.527C42.4221 39.0983 41.8407 38.8575 41.2345 38.8575C40.6283 38.8575 40.0469 39.0983 39.6183 39.527C39.1896 39.9556 38.9488 40.537 38.9488 41.1432C38.9488 41.7494 39.1896 42.3308 39.6183 42.7595C40.0469 43.1881 40.6283 43.4289 41.2345 43.4289Z" stroke="black" stroke-width="3" stroke-linecap="round" stroke-linejoin="round"/>
</svg>
