<svg width="52" height="52" viewBox="0 0 52 52" fill="none" xmlns="http://www.w3.org/2000/svg">
<path d="M22.0266 3.77321C22.5268 3.21454 23.1392 2.76763 23.8239 2.46167C24.5085 2.1557 25.25 1.99756 25.9999 1.99756C26.7498 1.99756 27.4913 2.1557 28.1759 2.46167C28.8606 2.76763 29.473 3.21454 29.9732 3.77321L31.8399 5.85855C32.3734 6.45454 33.0341 6.92289 33.7732 7.22893C34.5122 7.53498 35.3106 7.67087 36.1092 7.62655L38.9092 7.47188C39.6582 7.4306 40.4074 7.54774 41.1079 7.81567C41.8085 8.08361 42.4447 8.49629 42.9749 9.02679C43.5052 9.55728 43.9176 10.1937 44.1852 10.8944C44.4528 11.5951 44.5695 12.3443 44.5279 13.0932L44.3732 15.8905C44.3293 16.6888 44.4654 17.4866 44.7714 18.2252C45.0775 18.9637 45.5456 19.624 46.1412 20.1572L48.2266 22.0239C48.7857 22.5241 49.233 23.1367 49.5392 23.8216C49.8454 24.5065 50.0037 25.2483 50.0037 25.9985C50.0037 26.7488 49.8454 27.4906 49.5392 28.1755C49.233 28.8604 48.7857 29.473 48.2266 29.9732L46.1412 31.8399C45.5453 32.3734 45.0769 33.0341 44.7709 33.7731C44.4648 34.5122 44.3289 35.3106 44.3732 36.1092L44.5279 38.9092C44.5692 39.6581 44.452 40.4073 44.1841 41.1079C43.9162 41.8085 43.5035 42.4447 42.973 42.9749C42.4425 43.5051 41.8061 43.9175 41.1054 44.1851C40.4047 44.4527 39.6555 44.5695 38.9066 44.5279L36.1092 44.3732C35.311 44.3293 34.5131 44.4654 33.7746 44.7714C33.0361 45.0774 32.3758 45.5456 31.8426 46.1412L29.9759 48.2265C29.4757 48.7857 28.8631 49.2329 28.1782 49.5392C27.4933 49.8454 26.7515 50.0037 26.0012 50.0037C25.251 50.0037 24.5092 49.8454 23.8243 49.5392C23.1394 49.2329 22.5268 48.7857 22.0266 48.2265L20.1599 46.1412C19.6264 45.5452 18.9657 45.0769 18.2267 44.7708C17.4876 44.4648 16.6892 44.3289 15.8906 44.3732L13.0906 44.5279C12.3417 44.5692 11.5924 44.452 10.8919 44.1841C10.1913 43.9162 9.55513 43.5035 9.02488 42.973C8.49464 42.4425 8.08225 41.8061 7.81466 41.1054C7.54706 40.4047 7.43027 39.6554 7.47191 38.9065L7.62657 36.1092C7.67049 35.311 7.5344 34.5131 7.22837 33.7746C6.92234 33.036 6.4542 32.3758 5.85857 31.8425L3.77324 29.9759C3.21412 29.4756 2.76684 28.863 2.46061 28.1781C2.15438 27.4933 1.99609 26.7515 1.99609 26.0012C1.99609 25.251 2.15438 24.5092 2.46061 23.8243C2.76684 23.1394 3.21412 22.5268 3.77324 22.0265L5.85857 20.1599C6.45456 19.6264 6.92292 18.9657 7.22896 18.2266C7.535 17.4876 7.6709 16.6892 7.62657 15.8905L7.47191 13.0905C7.43101 12.3418 7.54845 11.5929 7.81655 10.8927C8.08466 10.1924 8.4974 9.55659 9.02786 9.02664C9.55831 8.49669 10.1945 8.08455 10.8951 7.81711C11.5956 7.54967 12.3446 7.43294 13.0932 7.47455L15.8906 7.62921C16.6888 7.67313 17.4867 7.53704 18.2252 7.23101C18.9637 6.92498 19.624 6.45684 20.1572 5.86121L22.0266 3.77321Z" stroke="black" stroke-width="3"/>
<path d="M19.333 19.333H19.3597V19.3597H19.333V19.333ZM32.6663 32.6663H32.693V32.693H32.6663V32.6663Z" stroke="black" stroke-width="2.25" stroke-linejoin="round"/>
<path d="M34 18L18 34" stroke="black" stroke-width="3" stroke-linecap="round" stroke-linejoin="round"/>
</svg>
