<svg width="64" height="64" viewBox="0 0 64 64" fill="none" xmlns="http://www.w3.org/2000/svg">
<g clip-path="url(#clip0_13150_19845)">
<path d="M43.3332 29.3333H20.6665C19.5732 29.3333 18.6665 30.24 18.6665 31.3333C18.6665 32.4266 19.5732 33.3333 20.6665 33.3333H43.3332C44.4265 33.3333 45.3332 32.4266 45.3332 31.3333C45.3332 30.24 44.4265 29.3333 43.3332 29.3333ZM43.3332 41.3333H20.6665C19.5732 41.3333 18.6665 42.24 18.6665 43.3333C18.6665 44.4266 19.5732 45.3333 20.6665 45.3333H43.3332C44.4265 45.3333 45.3332 44.4266 45.3332 43.3333C45.3332 42.24 44.4265 41.3333 43.3332 41.3333ZM18.6665 19.3333C18.6665 20.4266 19.5732 21.3333 20.6665 21.3333H40.5332L40.2932 20.5866C40.1598 20.2133 39.9732 19.8666 39.7332 19.5466C39.6265 19.4133 39.5465 19.3066 39.4398 19.2C39.0398 18.8 38.5598 18.5066 38.0532 18.3466L34.9332 17.3333H20.6665C19.5732 17.3333 18.6665 18.24 18.6665 19.3333ZM52.7998 35.44L52.1065 33.3333L49.9732 32.56C49.7332 32.48 49.5465 32.3466 49.3332 32.24V52.6666C49.3332 53.76 48.4265 54.6666 47.3332 54.6666H16.6665C15.5732 54.6666 14.6665 53.76 14.6665 52.6666V11.3333C14.6665 10.24 15.5732 9.33329 16.6665 9.33329H31.4132C31.4932 9.17329 31.5465 8.98663 31.6532 8.82663C32.2932 7.91996 33.1998 7.22663 34.2932 6.85329L38.0532 5.62663C38.2398 5.54663 38.4532 5.43996 38.6398 5.33329H16.6665C13.3598 5.33329 10.6665 8.02663 10.6665 11.3333V52.6666C10.6665 55.9733 13.3598 58.6666 16.6665 58.6666H47.3332C50.6398 58.6666 53.3332 55.9733 53.3332 52.6666V36.4533C53.1138 36.1391 52.9346 35.7987 52.7998 35.44ZM42.2665 16.4C42.4798 16.6133 42.6932 16.8533 42.8798 17.12C43.4132 17.7866 43.8132 18.56 44.0798 19.3866L45.2798 23.0666C45.3865 23.36 45.5732 23.6 45.8132 23.76C46.0532 23.9466 46.3465 24.0266 46.6398 24.0266C46.9374 24.0325 47.2284 23.9386 47.4665 23.76C47.6798 23.6 47.8665 23.3866 47.9732 23.1466V23.0666L49.1998 19.3866C49.5732 18.2666 50.1865 17.2533 51.0398 16.4266C51.8665 15.6 52.8798 14.96 53.9998 14.5866L57.6798 13.3866C57.9732 13.28 58.2132 13.0933 58.3732 12.8533C58.5518 12.6152 58.6457 12.3242 58.6398 12.0266C58.6457 11.729 58.5518 11.438 58.3732 11.2C58.1932 10.9641 57.954 10.7801 57.6798 10.6666H57.5998L53.9198 9.46663C52.7998 9.09329 51.7865 8.47996 50.9598 7.62663C50.1255 6.79581 49.4956 5.78251 49.1198 4.66663L47.9198 0.986627C47.8208 0.704394 47.6339 0.46137 47.3865 0.293294C47.1465 0.133294 46.8532 0.0266272 46.5598 0.0266272C46.2622 0.0207514 45.9712 0.114624 45.7332 0.293294C45.4932 0.453294 45.3065 0.719961 45.1998 0.986627L43.9998 4.66663V4.74663C43.5998 5.81329 42.9865 6.79996 42.2132 7.59996C41.3865 8.42663 40.3998 9.06663 39.2798 9.43996L35.5998 10.64C35.3065 10.7466 35.0665 10.9333 34.9065 11.1733C34.7278 11.4114 34.634 11.7024 34.6398 12C34.6398 12.2933 34.7198 12.5866 34.9065 12.8266C35.0665 13.0666 35.3332 13.2533 35.5998 13.36L39.2798 14.56C40.3998 14.9333 41.4132 15.5733 42.2398 16.4H42.2665ZM63.4132 27.2533C63.5838 27.2533 63.7598 27.4133 63.8665 27.5466C63.9732 27.68 63.9998 27.84 63.9998 28C63.9998 28.16 63.9732 28.32 63.8665 28.4533C63.7598 28.5866 63.6265 28.6933 63.4665 28.7466L61.4132 29.4133C60.7998 29.6266 60.2398 29.9733 59.7598 30.4266C59.3065 30.88 58.9598 31.44 58.7465 32.08L58.0798 34.1066C58.0265 34.2666 57.9198 34.4 57.7865 34.5066C57.6579 34.6096 57.498 34.6657 57.3332 34.6657C57.1684 34.6657 57.0085 34.6096 56.8798 34.5066C56.7454 34.4045 56.6435 34.2655 56.5865 34.1066L55.9198 32.08C55.7065 31.4666 55.3598 30.88 54.9065 30.4266C54.4532 29.9733 53.8665 29.6 53.2532 29.4133L51.1998 28.7466C51.0409 28.6896 50.902 28.5877 50.7998 28.4533C50.6968 28.3246 50.6407 28.1648 50.6407 28C50.6407 27.8352 50.6968 27.6753 50.7998 27.5466C50.9065 27.4133 51.0398 27.3066 51.1998 27.2533L53.2532 26.5866C53.8665 26.3733 54.4265 26.0266 54.8798 25.5733C55.3332 25.12 55.6798 24.56 55.8665 23.9466L56.5332 21.92C56.5865 21.76 56.6932 21.6266 56.8265 21.52C56.9552 21.417 57.115 21.3608 57.2798 21.3608C57.4446 21.3608 57.6045 21.417 57.7332 21.52C57.8665 21.6266 57.9732 21.76 58.0265 21.92L58.6932 23.9466C58.9065 24.56 59.2532 25.12 59.7065 25.6C60.1598 26.0533 60.7198 26.4 61.3598 26.6133L63.4132 27.2533Z" fill="black"/>
</g>
<defs>
<clipPath id="clip0_13150_19845">
<rect width="64" height="64" fill="white"/>
</clipPath>
</defs>
</svg>
