<svg width="106" height="31" viewBox="0 0 106 31" fill="none" xmlns="http://www.w3.org/2000/svg">
<path d="M3.39301 26.44L0.773008 23.84L7.87301 16.9L0.773008 9.96L3.39301 7.36L12.913 16.9L3.39301 26.44ZM36.5561 30.1C34.6761 30.1 33.0095 29.7267 31.5561 28.98C30.1161 28.22 28.9828 27.1667 28.1561 25.82C27.3428 24.4733 26.9361 22.9133 26.9361 21.14C26.9361 19.4867 27.3228 17.9733 28.0961 16.6C28.8695 15.2267 30.0228 14.1467 31.5561 13.36L31.4761 14.8C30.2495 14.04 29.3028 13.0933 28.6361 11.96C27.9828 10.8133 27.6561 9.53333 27.6561 8.12C27.6561 6.48 28.0361 5.06 28.7961 3.86C29.5561 2.66 30.6028 1.73333 31.9361 1.08C33.2828 0.426665 34.8228 0.0999994 36.5561 0.0999994C38.2895 0.0999994 39.8228 0.426665 41.1561 1.08C42.4895 1.73333 43.5361 2.66 44.2961 3.86C45.0561 5.06 45.4361 6.48 45.4361 8.12C45.4361 9.53333 45.1228 10.8067 44.4961 11.94C43.8695 13.0733 42.9095 14.0267 41.6161 14.8L41.5561 13.4C43.0761 14.1467 44.2295 15.2133 45.0161 16.6C45.8028 17.9733 46.1961 19.4867 46.1961 21.14C46.1961 22.9133 45.7828 24.4733 44.9561 25.82C44.1295 27.1667 42.9895 28.22 41.5361 28.98C40.0828 29.7267 38.4228 30.1 36.5561 30.1ZM36.5561 26.12C38.1028 26.12 39.3561 25.7 40.3161 24.86C41.2761 24.0067 41.7561 22.7667 41.7561 21.14C41.7561 19.5133 41.2761 18.2733 40.3161 17.42C39.3695 16.5533 38.1161 16.12 36.5561 16.12C34.9961 16.12 33.7361 16.5533 32.7761 17.42C31.8295 18.2733 31.3561 19.5133 31.3561 21.14C31.3561 22.7667 31.8361 24.0067 32.7961 24.86C33.7561 25.7 35.0095 26.12 36.5561 26.12ZM36.5561 12.12C37.8761 12.12 38.9428 11.7933 39.7561 11.14C40.5828 10.4733 40.9961 9.46667 40.9961 8.12C40.9961 6.77333 40.5828 5.76667 39.7561 5.1C38.9428 4.42 37.8761 4.08 36.5561 4.08C35.2361 4.08 34.1628 4.42 33.3361 5.1C32.5095 5.76667 32.0961 6.77333 32.0961 8.12C32.0961 9.46667 32.5095 10.4733 33.3361 11.14C34.1628 11.7933 35.2361 12.12 36.5561 12.12ZM60.4386 30.1C58.4786 30.1 56.7453 29.6733 55.2386 28.82C53.732 27.9533 52.5453 26.7667 51.6786 25.26C50.8253 23.7533 50.3986 22.02 50.3986 20.06V10.14C50.3986 8.18 50.8253 6.44667 51.6786 4.94C52.5453 3.43333 53.732 2.25333 55.2386 1.4C56.7453 0.533332 58.4786 0.0999994 60.4386 0.0999994C62.3986 0.0999994 64.132 0.533332 65.6386 1.4C67.1453 2.25333 68.3253 3.43333 69.1786 4.94C70.0453 6.44667 70.4786 8.18 70.4786 10.14V20.06C70.4786 22.02 70.0453 23.7533 69.1786 25.26C68.3253 26.7667 67.1453 27.9533 65.6386 28.82C64.132 29.6733 62.3986 30.1 60.4386 30.1ZM60.4386 26.1C61.5053 26.1 62.472 25.8467 63.3386 25.34C64.2186 24.82 64.9186 24.1267 65.4386 23.26C65.9586 22.38 66.2186 21.4 66.2186 20.32V9.84C66.2186 8.77333 65.9586 7.80667 65.4386 6.94C64.9186 6.06 64.2186 5.36667 63.3386 4.86C62.472 4.34 61.5053 4.08 60.4386 4.08C59.372 4.08 58.3986 4.34 57.5186 4.86C56.652 5.36667 55.9586 6.06 55.4386 6.94C54.9186 7.80667 54.6586 8.77333 54.6586 9.84V20.32C54.6586 21.4 54.9186 22.38 55.4386 23.26C55.9586 24.1267 56.652 24.82 57.5186 25.34C58.3986 25.8467 59.372 26.1 60.4386 26.1ZM78.6627 29.5L75.8627 26.7L101.883 0.699999L104.683 3.52L78.6627 29.5ZM98.6827 30.1C97.3627 30.1 96.156 29.78 95.0627 29.14C93.9827 28.4867 93.116 27.62 92.4627 26.54C91.8094 25.4467 91.4827 24.2333 91.4827 22.9C91.4827 21.5933 91.816 20.3933 92.4827 19.3C93.1494 18.2067 94.0294 17.3333 95.1227 16.68C96.216 16.0267 97.4027 15.7 98.6827 15.7C100.003 15.7 101.209 16.0267 102.303 16.68C103.396 17.32 104.263 18.1867 104.903 19.28C105.556 20.36 105.883 21.5667 105.883 22.9C105.883 24.2333 105.556 25.4467 104.903 26.54C104.263 27.62 103.396 28.4867 102.303 29.14C101.209 29.78 100.003 30.1 98.6827 30.1ZM98.6827 26.48C99.336 26.48 99.9294 26.32 100.463 26C101.009 25.6667 101.443 25.2267 101.763 24.68C102.096 24.1333 102.263 23.54 102.263 22.9C102.263 22.26 102.096 21.6667 101.763 21.12C101.443 20.5733 101.009 20.14 100.463 19.82C99.9294 19.4867 99.336 19.32 98.6827 19.32C98.0427 19.32 97.4494 19.4867 96.9027 19.82C96.3694 20.14 95.936 20.5733 95.6027 21.12C95.2827 21.6667 95.1227 22.26 95.1227 22.9C95.1227 23.54 95.2827 24.1333 95.6027 24.68C95.936 25.2267 96.3694 25.6667 96.9027 26C97.4494 26.32 98.0427 26.48 98.6827 26.48ZM81.8627 14.5C80.5427 14.5 79.336 14.18 78.2427 13.54C77.1494 12.8867 76.276 12.02 75.6227 10.94C74.9827 9.84667 74.6627 8.63333 74.6627 7.3C74.6627 5.99333 74.996 4.79333 75.6627 3.7C76.3294 2.60666 77.2094 1.73333 78.3027 1.08C79.396 0.426665 80.5827 0.0999994 81.8627 0.0999994C83.1827 0.0999994 84.3827 0.426665 85.4627 1.08C86.556 1.72 87.4294 2.58667 88.0827 3.68C88.736 4.76 89.0627 5.96667 89.0627 7.3C89.0627 8.63333 88.736 9.84667 88.0827 10.94C87.4294 12.02 86.556 12.8867 85.4627 13.54C84.3827 14.18 83.1827 14.5 81.8627 14.5ZM81.8627 10.88C82.5027 10.88 83.096 10.72 83.6427 10.4C84.1894 10.0667 84.6227 9.62667 84.9427 9.08C85.276 8.53333 85.4427 7.94 85.4427 7.3C85.4427 6.66 85.276 6.06667 84.9427 5.52C84.6227 4.97333 84.1894 4.54 83.6427 4.22C83.096 3.88667 82.5027 3.72 81.8627 3.72C81.2227 3.72 80.6294 3.88667 80.0827 4.22C79.5494 4.54 79.116 4.97333 78.7827 5.52C78.4494 6.06667 78.2827 6.66 78.2827 7.3C78.2827 7.94 78.4494 8.53333 78.7827 9.08C79.116 9.62667 79.5494 10.0667 80.0827 10.4C80.616 10.72 81.2094 10.88 81.8627 10.88Z" fill="#3E404B"/>
</svg>
