<svg width="18" height="18" viewBox="0 0 18 18" fill="none" xmlns="http://www.w3.org/2000/svg">
<path d="M8.99984 0.699997C4.4165 0.699997 0.666504 4.44166 0.666504 9.05C0.666504 13.2167 3.7165 16.675 7.69984 17.3V11.4667H5.58317V9.05H7.69984V7.20833C7.69984 5.11666 8.9415 3.96666 10.8498 3.96666C11.7582 3.96666 12.7082 4.125 12.7082 4.125V6.18333H11.6582C10.6248 6.18333 10.2998 6.825 10.2998 7.48333V9.05H12.6165L12.2415 11.4667H10.2998V17.3C12.2635 16.9899 14.0517 15.9879 15.3414 14.475C16.6312 12.9622 17.3376 11.038 17.3332 9.05C17.3332 4.44166 13.5832 0.699997 8.99984 0.699997Z" fill="#717171"/>
</svg>
