<svg width="97" height="31" viewBox="0 0 97 31" fill="none" xmlns="http://www.w3.org/2000/svg">
<path d="M5.48699 30V5.8L0.0669923 9.1V4.44L5.48699 1.2H9.74699V30H5.48699ZM26.382 30.6C24.422 30.6 22.6887 30.1733 21.182 29.32C19.6753 28.4533 18.4887 27.2667 17.622 25.76C16.7687 24.2533 16.342 22.52 16.342 20.56V10.64C16.342 8.68 16.7687 6.94667 17.622 5.44C18.4887 3.93333 19.6753 2.75333 21.182 1.9C22.6887 1.03333 24.422 0.599999 26.382 0.599999C28.342 0.599999 30.0753 1.03333 31.582 1.9C33.0887 2.75333 34.2687 3.93333 35.122 5.44C35.9887 6.94667 36.422 8.68 36.422 10.64V20.56C36.422 22.52 35.9887 24.2533 35.122 25.76C34.2687 27.2667 33.0887 28.4533 31.582 29.32C30.0753 30.1733 28.342 30.6 26.382 30.6ZM26.382 26.6C27.4487 26.6 28.4153 26.3467 29.282 25.84C30.162 25.32 30.862 24.6267 31.382 23.76C31.902 22.88 32.162 21.9 32.162 20.82V10.34C32.162 9.27333 31.902 8.30667 31.382 7.44C30.862 6.56 30.162 5.86667 29.282 5.36C28.4153 4.84 27.4487 4.58 26.382 4.58C25.3153 4.58 24.342 4.84 23.462 5.36C22.5953 5.86667 21.902 6.56 21.382 7.44C20.862 8.30667 20.602 9.27333 20.602 10.34V20.82C20.602 21.9 20.862 22.88 21.382 23.76C21.902 24.6267 22.5953 25.32 23.462 25.84C24.342 26.3467 25.3153 26.6 26.382 26.6ZM51.0461 30.6C49.0861 30.6 47.3527 30.1733 45.8461 29.32C44.3394 28.4533 43.1527 27.2667 42.2861 25.76C41.4327 24.2533 41.0061 22.52 41.0061 20.56V10.64C41.0061 8.68 41.4327 6.94667 42.2861 5.44C43.1527 3.93333 44.3394 2.75333 45.8461 1.9C47.3527 1.03333 49.0861 0.599999 51.0461 0.599999C53.0061 0.599999 54.7394 1.03333 56.2461 1.9C57.7527 2.75333 58.9327 3.93333 59.7861 5.44C60.6527 6.94667 61.0861 8.68 61.0861 10.64V20.56C61.0861 22.52 60.6527 24.2533 59.7861 25.76C58.9327 27.2667 57.7527 28.4533 56.2461 29.32C54.7394 30.1733 53.0061 30.6 51.0461 30.6ZM51.0461 26.6C52.1127 26.6 53.0794 26.3467 53.9461 25.84C54.8261 25.32 55.5261 24.6267 56.0461 23.76C56.5661 22.88 56.8261 21.9 56.8261 20.82V10.34C56.8261 9.27333 56.5661 8.30667 56.0461 7.44C55.5261 6.56 54.8261 5.86667 53.9461 5.36C53.0794 4.84 52.1127 4.58 51.0461 4.58C49.9794 4.58 49.0061 4.84 48.1261 5.36C47.2594 5.86667 46.5661 6.56 46.0461 7.44C45.5261 8.30667 45.2661 9.27333 45.2661 10.34V20.82C45.2661 21.9 45.5261 22.88 46.0461 23.76C46.5661 24.6267 47.2594 25.32 48.1261 25.84C49.0061 26.3467 49.9794 26.6 51.0461 26.6ZM69.2701 30L66.4701 27.2L92.4901 1.2L95.2901 4.02L69.2701 30ZM89.2901 30.6C87.9701 30.6 86.7635 30.28 85.6701 29.64C84.5901 28.9867 83.7235 28.12 83.0701 27.04C82.4168 25.9467 82.0901 24.7333 82.0901 23.4C82.0901 22.0933 82.4235 20.8933 83.0901 19.8C83.7568 18.7067 84.6368 17.8333 85.7301 17.18C86.8235 16.5267 88.0101 16.2 89.2901 16.2C90.6101 16.2 91.8168 16.5267 92.9101 17.18C94.0035 17.82 94.8701 18.6867 95.5101 19.78C96.1635 20.86 96.4901 22.0667 96.4901 23.4C96.4901 24.7333 96.1635 25.9467 95.5101 27.04C94.8701 28.12 94.0035 28.9867 92.9101 29.64C91.8168 30.28 90.6101 30.6 89.2901 30.6ZM89.2901 26.98C89.9435 26.98 90.5368 26.82 91.0701 26.5C91.6168 26.1667 92.0501 25.7267 92.3701 25.18C92.7035 24.6333 92.8701 24.04 92.8701 23.4C92.8701 22.76 92.7035 22.1667 92.3701 21.62C92.0501 21.0733 91.6168 20.64 91.0701 20.32C90.5368 19.9867 89.9435 19.82 89.2901 19.82C88.6501 19.82 88.0568 19.9867 87.5101 20.32C86.9768 20.64 86.5435 21.0733 86.2101 21.62C85.8901 22.1667 85.7301 22.76 85.7301 23.4C85.7301 24.04 85.8901 24.6333 86.2101 25.18C86.5435 25.7267 86.9768 26.1667 87.5101 26.5C88.0568 26.82 88.6501 26.98 89.2901 26.98ZM72.4701 15C71.1501 15 69.9435 14.68 68.8501 14.04C67.7568 13.3867 66.8835 12.52 66.2301 11.44C65.5901 10.3467 65.2701 9.13333 65.2701 7.8C65.2701 6.49333 65.6035 5.29333 66.2701 4.2C66.9368 3.10666 67.8168 2.23333 68.9101 1.58C70.0035 0.926665 71.1901 0.599999 72.4701 0.599999C73.7901 0.599999 74.9901 0.926665 76.0701 1.58C77.1635 2.22 78.0368 3.08667 78.6901 4.18C79.3435 5.26 79.6701 6.46667 79.6701 7.8C79.6701 9.13333 79.3435 10.3467 78.6901 11.44C78.0368 12.52 77.1635 13.3867 76.0701 14.04C74.9901 14.68 73.7901 15 72.4701 15ZM72.4701 11.38C73.1101 11.38 73.7035 11.22 74.2501 10.9C74.7968 10.5667 75.2301 10.1267 75.5501 9.58C75.8835 9.03333 76.0501 8.44 76.0501 7.8C76.0501 7.16 75.8835 6.56667 75.5501 6.02C75.2301 5.47333 74.7968 5.04 74.2501 4.72C73.7035 4.38667 73.1101 4.22 72.4701 4.22C71.8301 4.22 71.2368 4.38667 70.6901 4.72C70.1568 5.04 69.7235 5.47333 69.3901 6.02C69.0568 6.56667 68.8901 7.16 68.8901 7.8C68.8901 8.44 69.0568 9.03333 69.3901 9.58C69.7235 10.1267 70.1568 10.5667 70.6901 10.9C71.2235 11.22 71.8168 11.38 72.4701 11.38Z" fill="#3E404B"/>
</svg>
