<svg width="18" height="18" viewBox="0 0 18 18" fill="none" xmlns="http://www.w3.org/2000/svg">
<path fill-rule="evenodd" clip-rule="evenodd" d="M4.35874 1.01186C3.47102 1.01186 2.61964 1.36441 1.9918 1.99201C1.36397 2.6196 1.01108 3.47085 1.01074 4.35857V13.2866C1.01074 14.1745 1.36348 15.0261 1.99135 15.654C2.61922 16.2818 3.4708 16.6346 4.35874 16.6346H13.2867C14.1745 16.6342 15.0257 16.2813 15.6533 15.6535C16.2809 15.0257 16.6335 14.1743 16.6335 13.2866V4.35857C16.6331 3.47107 16.2804 2.62002 15.6529 1.99246C15.0253 1.36491 14.1742 1.0122 13.2867 1.01186H4.35874ZM14.2497 4.36371C14.2497 4.61946 14.1481 4.86473 13.9673 5.04557C13.7865 5.22641 13.5412 5.328 13.2855 5.328C13.0297 5.328 12.7844 5.22641 12.6036 5.04557C12.4228 4.86473 12.3212 4.61946 12.3212 4.36371C12.3212 4.10797 12.4228 3.8627 12.6036 3.68186C12.7844 3.50102 13.0297 3.39943 13.2855 3.39943C13.5412 3.39943 13.7865 3.50102 13.9673 3.68186C14.1481 3.8627 14.2497 4.10797 14.2497 4.36371ZM8.82403 6.14829C8.11476 6.14829 7.43455 6.43004 6.93302 6.93156C6.4315 7.43309 6.14974 8.11331 6.14974 8.82257C6.14974 9.53184 6.4315 10.2121 6.93302 10.7136C7.43455 11.2151 8.11476 11.4969 8.82403 11.4969C9.53329 11.4969 10.2135 11.2151 10.715 10.7136C11.2166 10.2121 11.4983 9.53184 11.4983 8.82257C11.4983 8.11331 11.2166 7.43309 10.715 6.93156C10.2135 6.43004 9.53329 6.14829 8.82403 6.14829ZM4.86274 8.82257C4.86274 7.77231 5.27996 6.76507 6.0226 6.02243C6.76524 5.27978 7.77249 4.86257 8.82274 4.86257C9.873 4.86257 10.8802 5.27978 11.6229 6.02243C12.3655 6.76507 12.7827 7.77231 12.7827 8.82257C12.7827 9.87283 12.3655 10.8801 11.6229 11.6227C10.8802 12.3654 9.873 12.7826 8.82274 12.7826C7.77249 12.7826 6.76524 12.3654 6.0226 11.6227C5.27996 10.8801 4.86274 9.87283 4.86274 8.82257Z" fill="#717171"/>
</svg>
