<svg width="56" height="53" viewBox="0 0 56 53" fill="none" xmlns="http://www.w3.org/2000/svg">
<path d="M48.1797 40.4766C49.3828 41.0599 50.4583 41.7891 51.4062 42.6641C52.3542 43.5391 53.1745 44.5234 53.8672 45.6172C54.5599 46.7109 55.0885 47.8776 55.4531 49.1172C55.8177 50.3568 56 51.651 56 53H52.5C52.5 51.5599 52.2266 50.2018 51.6797 48.9258C51.1328 47.6497 50.3763 46.5378 49.4102 45.5898C48.444 44.6419 47.332 43.8945 46.0742 43.3477C44.8164 42.8008 43.4583 42.5182 42 42.5C40.5599 42.5 39.2018 42.7734 37.9258 43.3203C36.6497 43.8672 35.5378 44.6237 34.5898 45.5898C33.6419 46.556 32.8945 47.668 32.3477 48.9258C31.8008 50.1836 31.5182 51.5417 31.5 53H28C28 51.6693 28.1823 50.3841 28.5469 49.1445C28.9115 47.9049 29.431 46.7383 30.1055 45.6445C30.7799 44.5508 31.6003 43.5664 32.5664 42.6914C33.5326 41.8164 34.6172 41.0781 35.8203 40.4766C34.4531 39.4922 33.3958 38.2617 32.6484 36.7852C31.901 35.3086 31.5182 33.7135 31.5 32C31.5 30.5599 31.7734 29.2018 32.3203 27.9258C32.8672 26.6497 33.6146 25.5378 34.5625 24.5898C35.5104 23.6419 36.6224 22.8854 37.8984 22.3203C39.1745 21.7552 40.5417 21.4818 42 21.5C43.4401 21.5 44.7982 21.7734 46.0742 22.3203C47.3503 22.8672 48.4622 23.6146 49.4102 24.5625C50.3581 25.5104 51.1146 26.6315 51.6797 27.9258C52.2448 29.2201 52.5182 30.5781 52.5 32C52.5 33.6953 52.1263 35.2812 51.3789 36.7578C50.6315 38.2344 49.5651 39.474 48.1797 40.4766ZM42 39C42.9661 39 43.8685 38.8177 44.707 38.4531C45.5456 38.0885 46.293 37.5872 46.9492 36.9492C47.6055 36.3112 48.1068 35.5729 48.4531 34.7344C48.7995 33.8958 48.9818 32.9844 49 32C49 31.0339 48.8177 30.1315 48.4531 29.293C48.0885 28.4544 47.5872 27.707 46.9492 27.0508C46.3112 26.3945 45.5729 25.8932 44.7344 25.5469C43.8958 25.2005 42.9844 25.0182 42 25C41.0339 25 40.1315 25.1823 39.293 25.5469C38.4544 25.9115 37.707 26.4128 37.0508 27.0508C36.3945 27.6888 35.8932 28.4271 35.5469 29.2656C35.2005 30.1042 35.0182 31.0156 35 32C35 32.9661 35.1823 33.8685 35.5469 34.707C35.9115 35.5456 36.4128 36.293 37.0508 36.9492C37.6888 37.6055 38.4271 38.1068 39.2656 38.4531C40.1042 38.7995 41.0156 38.9818 42 39ZM56 0.5V28.5C56 27.625 55.918 26.8594 55.7539 26.2031C55.5898 25.5469 55.362 24.9362 55.0703 24.3711C54.7786 23.806 54.4141 23.2591 53.9766 22.7305C53.5391 22.2018 53.0469 21.6276 52.5 21.0078V4H3.5V35.5H10.5V42.8008L17.8008 35.5H28.4648C28.6107 36.1198 28.8021 36.7214 29.0391 37.3047C29.276 37.888 29.5586 38.4531 29.8867 39H19.25L7 51.25V39H0V0.5H56Z" fill="black"/>
</svg>
