<svg width="42" height="52" viewBox="0 0 42 52" fill="none" xmlns="http://www.w3.org/2000/svg">
<path d="M29.0002 12.6667H13.0002M29.0002 23.3333H13.0002M29.0002 34H18.3335M2.3335 2H39.6668V50L36.9148 47.6427C35.9482 46.8142 34.7172 46.3589 33.4442 46.3589C32.1711 46.3589 30.9401 46.8142 29.9735 47.6427L27.2215 50L24.4722 47.6427C23.5054 46.8135 22.2738 46.3577 21.0002 46.3577C19.7265 46.3577 18.4949 46.8135 17.5282 47.6427L14.7788 50L12.0268 47.6427C11.0602 46.8142 9.82919 46.3589 8.55616 46.3589C7.28314 46.3589 6.0521 46.8142 5.0855 47.6427L2.3335 50V2Z" stroke="black" stroke-width="4" stroke-linecap="round" stroke-linejoin="round"/>
</svg>
