<svg width="24" height="24" viewBox="0 0 24 24" fill="none" xmlns="http://www.w3.org/2000/svg">
<g clip-path="url(#clip0_12231_739)">
<path d="M6.41999 15.1047C6.64411 14.9755 6.72083 14.6885 6.59156 14.4644C6.4621 14.2405 6.17536 14.1636 5.95124 14.2929C5.72711 14.4223 5.65021 14.7092 5.77967 14.9332C5.90894 15.1573 6.19586 15.2342 6.41999 15.1047Z" fill="black"/>
<path d="M4.49926 18.34L6.85986 22.429C7.36926 23.3123 8.51513 23.6393 9.42132 23.1154C10.318 22.5972 10.6262 21.4515 10.1074 20.5541L8.70116 18.1181L9.919 17.415C10.1431 17.2853 10.22 16.9988 10.0906 16.7747L9.48101 15.7189C9.5537 15.7048 10.0316 15.611 18.4594 13.9578C19.5013 13.9012 20.1255 12.7617 19.5992 11.8508L18.0414 9.15253L19.0369 7.64465C19.1347 7.49634 19.1406 7.30573 19.0518 7.15192L18.1143 5.52814C18.0254 5.37433 17.8568 5.28424 17.6801 5.29468L15.8767 5.40289L14.1473 2.40729C13.8968 1.97333 13.448 1.71057 12.947 1.70435C12.941 1.70416 12.9351 1.70416 12.9291 1.70416C12.4449 1.70416 12.0055 1.94513 11.7451 2.35254L5.6217 10.1532L1.6408 12.4515C0.0750657 13.3552 -0.467293 15.3638 0.439812 16.9338C1.26855 18.3693 3.01574 18.934 4.49926 18.34ZM9.29571 21.0231C9.55462 21.4709 9.40136 22.0441 8.9522 22.3035C8.50158 22.5641 7.92773 22.4041 7.67175 21.9604L5.328 17.9004L6.95178 16.9629C9.6643 21.6617 9.25213 20.9478 9.29571 21.0231ZM8.23241 17.306L7.76366 16.4941L8.57555 16.0254L9.0443 16.8373L8.23241 17.306ZM17.4472 6.24774L18.095 7.36981L17.5173 8.24469L16.4007 6.31055L17.4472 6.24774ZM12.5292 2.86652C12.655 2.66071 12.8545 2.63947 12.9355 2.64166C13.0155 2.64258 13.2149 2.66748 13.3352 2.87585L18.7873 12.3195C18.965 12.627 18.7491 13.0135 18.3929 13.0223C18.329 13.0237 18.2996 13.0353 18.1359 13.0659L12.3686 3.07654C12.4896 2.9209 12.5052 2.90588 12.5292 2.86652ZM11.7447 3.87122L17.1634 13.2567L8.98553 14.8607L6.49896 10.5538L11.7447 3.87122ZM1.2517 16.465C1.04589 16.1089 0.937126 15.7046 0.937126 15.2955C0.937126 14.4595 1.38647 13.6809 2.10955 13.2634L5.76305 11.1541L8.1068 15.2135L4.4533 17.3231C3.33398 17.9691 1.89788 17.5842 1.2517 16.465Z" fill="black"/>
<path d="M4.96826 15.4019C4.83881 15.1778 4.55207 15.1009 4.32794 15.2303L3.51606 15.6991C3.2923 15.8284 3.00501 15.7513 2.87574 15.5275C2.74628 15.3034 2.45954 15.2265 2.23542 15.356C2.01129 15.4854 1.93439 15.7722 2.06385 15.9963C2.44965 16.6646 3.31024 16.9003 3.98481 16.511L4.79669 16.0422C5.02082 15.9128 5.09772 15.6262 4.96826 15.4019Z" fill="black"/>
<path d="M23.3031 2.70686L20.6911 4.16035C20.465 4.28632 20.3835 4.57178 20.5095 4.79792C20.6351 5.02387 20.9203 5.10572 21.147 4.97956L23.7588 3.52607C23.9852 3.40009 24.0665 3.11463 23.9405 2.8885C23.8147 2.66218 23.5292 2.58088 23.3031 2.70686Z" fill="black"/>
<path d="M23.0293 7.56171L21.2182 7.07648C20.9681 7.00946 20.711 7.15778 20.644 7.4079C20.577 7.65802 20.7255 7.91492 20.9756 7.98194L22.7869 8.46716C23.0385 8.53473 23.2943 8.38403 23.3609 8.13574C23.428 7.88562 23.2795 7.62854 23.0293 7.56171Z" fill="black"/>
<path d="M18.4784 1.00379L17.9927 2.81506C17.9256 3.06519 18.074 3.32208 18.3241 3.38928C18.574 3.45612 18.8311 3.30817 18.8983 3.05786L19.3839 1.24658C19.4509 0.996461 19.3026 0.739381 19.0525 0.672365C18.8025 0.605348 18.5455 0.753663 18.4784 1.00379Z" fill="black"/>
</g>
<defs>
<clipPath id="clip0_12231_739">
<rect width="24" height="24" fill="white"/>
</clipPath>
</defs>
</svg>
