<svg width="20" height="20" viewBox="0 0 20 20" fill="none" xmlns="http://www.w3.org/2000/svg">
<path d="M13.7412 4.11063H5.60937C5.29875 4.11063 5.04688 4.3625 5.04688 4.67313C5.04688 4.98375 5.29875 5.23563 5.60937 5.23563H13.7419C14.0525 5.23563 14.3044 4.98375 14.3044 4.67313C14.3044 4.3625 14.0519 4.11063 13.7412 4.11063Z" fill="black"/>
<path d="M14.3038 7.84438C14.3038 7.53375 14.0519 7.28188 13.7413 7.28188H5.60937C5.29875 7.28188 5.04688 7.53375 5.04688 7.84438C5.04688 8.155 5.29875 8.40688 5.60937 8.40688H13.7419C14.0519 8.40688 14.3038 8.155 14.3038 7.84438Z" fill="black"/>
<path d="M5.60937 10.4538C5.29875 10.4538 5.04688 10.7056 5.04688 11.0163C5.04688 11.3269 5.29875 11.5788 5.60937 11.5788H9.70562C10.0162 11.5788 10.2681 11.3269 10.2681 11.0163C10.2681 10.7056 10.0162 10.4538 9.70562 10.4538H5.60937Z" fill="black"/>
<path d="M7.07035 18.1875H3.58973C3.10973 18.1875 2.71973 17.7969 2.71973 17.3175V2.6825C2.71973 2.2025 3.11035 1.8125 3.58973 1.8125H15.7622C16.2416 1.8125 16.6322 2.20312 16.6322 2.6825V8.02312C16.6322 8.33375 16.8841 8.58562 17.1947 8.58562C17.5054 8.58562 17.7572 8.33375 17.7572 8.02312V2.6825C17.7572 1.5825 16.8622 0.6875 15.7629 0.6875H3.58973C2.48973 0.6875 1.59473 1.5825 1.59473 2.6825V17.3175C1.59473 18.4175 2.48973 19.3125 3.58973 19.3125H7.07035C7.38098 19.3125 7.63285 19.0606 7.63285 18.75C7.63285 18.4394 7.38098 18.1875 7.07035 18.1875Z" fill="black"/>
<path d="M17.792 10.5713C16.9757 9.75438 15.6464 9.75438 14.8307 10.5713L9.65885 15.7431C9.4951 15.9069 9.3876 16.1144 9.34885 16.3425L9.06635 18.0194C9.00635 18.3725 9.12198 18.7344 9.3751 18.9875C9.58385 19.1969 9.86823 19.3125 10.1595 19.3125C10.2207 19.3125 10.282 19.3075 10.3432 19.2969L12.0189 19.0138C12.2476 18.9756 12.4557 18.8688 12.6195 18.7044L17.7914 13.5325C18.6082 12.7163 18.6082 11.3875 17.792 10.5713ZM11.8332 17.9044L10.1757 18.2063L10.4539 16.5381L14.1757 12.8163L15.547 14.1875L11.8332 17.9044ZM16.9964 12.7369L16.342 13.3919L14.9707 12.0206L15.6257 11.3656C15.8145 11.1769 16.0632 11.0825 16.3114 11.0825C16.5595 11.0825 16.8076 11.1769 16.997 11.3656C17.3745 11.7444 17.3745 12.3588 16.9964 12.7369Z" fill="black"/>
</svg>
