<svg width="20" height="20" viewBox="0 0 20 20" fill="none" xmlns="http://www.w3.org/2000/svg">
<path d="M19.9962 0.377477C19.9931 0.354428 19.9896 0.332249 19.9827 0.309636C19.9753 0.284848 19.9653 0.262234 19.954 0.239186C19.9479 0.226574 19.9457 0.213093 19.9383 0.200917C19.9335 0.193089 19.9257 0.18787 19.9201 0.180477C19.9057 0.160473 19.8887 0.143078 19.8709 0.125248C19.8531 0.107418 19.8353 0.0908927 19.8148 0.0765418C19.8074 0.0713232 19.8026 0.0639303 19.7952 0.0595815C19.7831 0.0521886 19.7696 0.0504491 19.757 0.0443609C19.7331 0.0326192 19.7096 0.022617 19.6844 0.0152241C19.663 0.00957068 19.6422 0.00652654 19.6204 0.00391728C19.5948 0.000873136 19.57 -0.000866372 19.5443 0.000438259C19.5204 0.00174289 19.4974 0.00652654 19.4739 0.0121799C19.4591 0.015659 19.4439 0.0143543 19.4291 0.0195729L0.294491 6.54273C0.12141 6.601 0.00355828 6.76234 7.92602e-05 6.94543C-0.00339976 7.12851 0.107929 7.2942 0.27927 7.35986L9.21904 10.795L13.0821 19.7378C13.1512 19.8974 13.3086 20 13.4813 20C13.4887 20 13.4956 20 13.503 19.9996C13.6844 19.9904 13.8405 19.87 13.8957 19.6973L19.984 0.562734C19.9883 0.549253 19.987 0.535337 19.9896 0.521421C19.9949 0.497068 19.9988 0.473585 19.9996 0.448797C20.0005 0.424443 19.9992 0.401395 19.9962 0.377477ZM1.71089 6.97804L17.9392 1.44553L9.43778 9.94695L1.71089 6.97804ZM13.4191 18.3253L10.0618 10.5532L18.6128 2.00174L13.4191 18.3253Z" fill="#3E404B"/>
<path d="M6.83072 13.1694C6.66069 12.9993 6.38584 12.9993 6.21581 13.1694L0.127528 19.2577C-0.0425092 19.4277 -0.0425092 19.7025 0.127528 19.8726C0.212329 19.9574 0.323657 20 0.434986 20C0.546314 20 0.657643 19.9574 0.742444 19.8726L6.83072 13.7843C7.00076 13.6143 7.00076 13.3394 6.83072 13.1694Z" fill="#3E404B"/>
<path d="M7.95487 16.2135L4.91073 19.2577C4.74069 19.4277 4.74069 19.7025 4.91073 19.8726C4.99553 19.9574 5.10686 20 5.21819 20C5.32952 20 5.44085 19.9574 5.52565 19.8726L8.56979 16.8284C8.73982 16.6584 8.73982 16.3836 8.56979 16.2135C8.39975 16.0435 8.12491 16.0435 7.95487 16.2135Z" fill="#3E404B"/>
<path d="M0.434986 15.2164C0.546314 15.2164 0.657643 15.1737 0.742444 15.0889L3.78658 12.0448C3.95662 11.8748 3.95662 11.5999 3.78658 11.4299C3.61655 11.2598 3.3417 11.2598 3.17167 11.4299L0.127528 14.474C-0.0425092 14.6441 -0.0425092 14.9189 0.127528 15.0889C0.212329 15.1737 0.323657 15.2164 0.434986 15.2164Z" fill="#3E404B"/>
</svg>
