<svg width="64" height="64" viewBox="0 0 64 64" fill="none" xmlns="http://www.w3.org/2000/svg">
<path d="M23.8275 25.3C24.9184 27.3648 25.4886 29.6647 25.4886 32C25.4886 34.3353 24.9184 36.6352 23.8275 38.7C23.6419 39.0521 23.324 39.316 22.9437 39.4337C22.5635 39.5513 22.1521 39.5131 21.8 39.3275C21.4479 39.1418 21.184 38.8239 21.0664 38.4437C20.9487 38.0635 20.9869 37.6521 21.1725 37.3C22.0489 35.6709 22.5076 33.8499 22.5076 32C22.5076 30.1501 22.0489 28.3291 21.1725 26.7C21.0806 26.5257 21.0239 26.3349 21.0057 26.1387C20.9875 25.9425 21.0081 25.7446 21.0664 25.5563C21.1246 25.368 21.2194 25.1931 21.3453 25.0414C21.4712 24.8898 21.6257 24.7644 21.8 24.6725C21.9743 24.5806 22.1651 24.5239 22.3613 24.5057C22.5575 24.4875 22.7555 24.5081 22.9437 24.5663C23.132 24.6246 23.3069 24.7194 23.4586 24.8453C23.6102 24.9712 23.7356 25.1257 23.8275 25.3ZM35.7925 16.6775C35.4418 16.8652 35.18 17.1845 35.0646 17.5651C34.9493 17.9458 34.9899 18.3567 35.1775 18.7075C37.3661 22.7963 38.5112 27.3623 38.5112 32C38.5112 36.6377 37.3661 41.2037 35.1775 45.2925C35.0813 45.4664 35.0207 45.6577 34.999 45.8553C34.9774 46.0528 34.9953 46.2527 35.0516 46.4433C35.1079 46.6339 35.2015 46.8115 35.327 46.9656C35.4525 47.1197 35.6073 47.2473 35.7826 47.3411C35.9578 47.4348 36.1499 47.4928 36.3478 47.5117C36.5456 47.5305 36.7453 47.5099 36.9351 47.4509C37.1249 47.392 37.301 47.2959 37.4534 47.1683C37.6057 47.0407 37.7312 46.884 37.8225 46.7075C40.2444 42.1835 41.5116 37.1315 41.5116 32C41.5116 26.8685 40.2444 21.8165 37.8225 17.2925C37.6348 16.9418 37.3156 16.68 36.9349 16.5646C36.5542 16.4493 36.1433 16.4899 35.7925 16.6775ZM28.7925 20.6775C28.6184 20.77 28.4643 20.8959 28.3389 21.048C28.2135 21.2001 28.1193 21.3755 28.0617 21.564C28.0042 21.7525 27.9843 21.9506 28.0033 22.1468C28.0223 22.343 28.0798 22.5335 28.1725 22.7075C29.6984 25.5681 30.4965 28.7604 30.4965 32.0025C30.4965 35.2446 29.6984 38.4369 28.1725 41.2975C27.9855 41.6489 27.9458 42.0602 28.0621 42.4409C28.1784 42.8216 28.4411 43.1405 28.7925 43.3275C29.1439 43.5145 29.5552 43.5542 29.9359 43.4379C30.3166 43.3217 30.6355 43.0589 30.8225 42.7075C32.5795 39.4128 33.4985 35.7364 33.4985 32.0025C33.4985 28.2686 32.5795 24.5922 30.8225 21.2975C30.6361 20.9461 30.3179 20.6832 29.9377 20.5665C29.5574 20.4497 29.1464 20.4888 28.795 20.675L28.7925 20.6775ZM57.5 32C57.5 37.0434 56.0045 41.9736 53.2025 46.167C50.4005 50.3605 46.418 53.6289 41.7584 55.5589C37.0989 57.489 31.9717 57.9939 27.0252 57.01C22.0787 56.0261 17.535 53.5975 13.9688 50.0312C10.4025 46.465 7.97391 41.9213 6.98999 36.9748C6.00606 32.0283 6.51105 26.9011 8.44108 22.2416C10.3711 17.5821 13.6395 13.5995 17.833 10.7975C22.0264 7.99555 26.9566 6.5 32 6.5C38.7606 6.50794 45.242 9.19709 50.0225 13.9775C54.8029 18.758 57.4921 25.2394 57.5 32ZM54.5 32C54.5 27.5499 53.1804 23.1998 50.7081 19.4997C48.2357 15.7996 44.7217 12.9157 40.6104 11.2127C36.4991 9.50974 31.9751 9.06416 27.6105 9.93233C23.2459 10.8005 19.2368 12.9434 16.0901 16.0901C12.9434 19.2368 10.8005 23.2459 9.93234 27.6105C9.06418 31.975 9.50975 36.499 11.2127 40.6104C12.9157 44.7217 15.7996 48.2357 19.4997 50.7081C23.1998 53.1804 27.5499 54.5 32 54.5C37.9654 54.4934 43.6845 52.1207 47.9026 47.9026C52.1207 43.6845 54.4934 37.9653 54.5 32Z" fill="black"/>
</svg>
