<svg width="48" height="45" viewBox="0 0 48 45" fill="none" xmlns="http://www.w3.org/2000/svg">
<path d="M32.333 29.5C32.333 27.29 26.065 25.5 18.333 25.5M32.333 29.5C32.333 31.71 26.065 33.5 18.333 33.5C10.601 33.5 4.33301 31.71 4.33301 29.5M32.333 29.5V39.374C32.333 41.652 26.065 43.5 18.333 43.5C10.601 43.5 4.33301 41.654 4.33301 39.374V29.5M32.333 29.5C39.981 29.5 46.333 27.526 46.333 25.5V5.5M18.333 25.5C10.601 25.5 4.33301 27.29 4.33301 29.5M18.333 25.5C9.49701 25.5 2.33301 23.526 2.33301 21.5V11.5M18.333 7.5C9.49701 7.5 2.33301 9.29 2.33301 11.5M2.33301 11.5C2.33301 13.71 9.49701 15.5 18.333 15.5C18.333 17.526 24.839 19.5 32.487 19.5C40.133 19.5 46.333 17.526 46.333 15.5M46.333 5.5C46.333 3.29 40.133 1.5 32.487 1.5C24.839 1.5 18.641 3.29 18.641 5.5M46.333 5.5C46.333 7.71 40.133 9.5 32.487 9.5C24.841 9.5 18.641 7.71 18.641 5.5M18.641 5.5V25.832" stroke="#3E404B" stroke-width="3"/>
</svg>
