<svg width="24" height="24" viewBox="0 0 24 24" fill="none" xmlns="http://www.w3.org/2000/svg">
<path d="M9.00036 9C8.99821 8.33658 8.77621 7.69259 8.36909 7.16877C7.96198 6.64495 7.39272 6.27085 6.75036 6.105V3.75C6.75036 3.55109 6.67134 3.36032 6.53069 3.21967C6.39004 3.07902 6.19927 3 6.00036 3C5.80145 3 5.61068 3.07902 5.47003 3.21967C5.32938 3.36032 5.25036 3.55109 5.25036 3.75V6.105C4.61483 6.27771 4.0538 6.65475 3.65381 7.17795C3.25382 7.70114 3.03711 8.34142 3.03711 9C3.03711 9.65858 3.25382 10.2989 3.65381 10.8221C4.0538 11.3452 4.61483 11.7223 5.25036 11.895V20.25C5.25036 20.4489 5.32938 20.6397 5.47003 20.7803C5.61068 20.921 5.80145 21 6.00036 21C6.19927 21 6.39004 20.921 6.53069 20.7803C6.67134 20.6397 6.75036 20.4489 6.75036 20.25V11.895C7.39272 11.7291 7.96198 11.3551 8.36909 10.8312C8.77621 10.3074 8.99821 9.66342 9.00036 9ZM6.00036 10.5C5.70369 10.5 5.41368 10.412 5.167 10.2472C4.92033 10.0824 4.72807 9.84811 4.61454 9.57403C4.50101 9.29994 4.4713 8.99834 4.52918 8.70736C4.58706 8.41639 4.72992 8.14912 4.9397 7.93934C5.14948 7.72956 5.41675 7.5867 5.70772 7.52882C5.9987 7.47094 6.3003 7.50065 6.57438 7.61418C6.84847 7.72771 7.08274 7.91997 7.24756 8.16665C7.41239 8.41332 7.50036 8.70333 7.50036 9C7.50036 9.39782 7.34232 9.77936 7.06102 10.0607C6.77971 10.342 6.39818 10.5 6.00036 10.5ZM12.7504 13.605V3.75C12.7504 3.55109 12.6713 3.36032 12.5307 3.21967C12.39 3.07902 12.1993 3 12.0004 3C11.8014 3 11.6107 3.07902 11.47 3.21967C11.3294 3.36032 11.2504 3.55109 11.2504 3.75V13.605C10.6148 13.7777 10.0538 14.1548 9.65381 14.6779C9.25382 15.2011 9.03711 15.8414 9.03711 16.5C9.03711 17.1586 9.25382 17.7989 9.65381 18.3221C10.0538 18.8452 10.6148 19.2223 11.2504 19.395V20.25C11.2504 20.4489 11.3294 20.6397 11.47 20.7803C11.6107 20.921 11.8014 21 12.0004 21C12.1993 21 12.39 20.921 12.5307 20.7803C12.6713 20.6397 12.7504 20.4489 12.7504 20.25V19.395C13.3859 19.2223 13.9469 18.8452 14.3469 18.3221C14.7469 17.7989 14.9636 17.1586 14.9636 16.5C14.9636 15.8414 14.7469 15.2011 14.3469 14.6779C13.9469 14.1548 13.3859 13.7777 12.7504 13.605ZM12.0004 18C11.7037 18 11.4137 17.912 11.167 17.7472C10.9203 17.5824 10.7281 17.3481 10.6145 17.074C10.501 16.7999 10.4713 16.4983 10.5292 16.2074C10.5871 15.9164 10.7299 15.6491 10.9397 15.4393C11.1495 15.2296 11.4168 15.0867 11.7077 15.0288C11.9987 14.9709 12.3003 15.0006 12.5744 15.1142C12.8485 15.2277 13.0827 15.42 13.2476 15.6666C13.4124 15.9133 13.5004 16.2033 13.5004 16.5C13.5004 16.8978 13.3423 17.2794 13.061 17.5607C12.7797 17.842 12.3982 18 12.0004 18ZM21.0004 7.5C20.9982 6.83658 20.7762 6.19259 20.3691 5.66877C19.962 5.14495 19.3927 4.77085 18.7504 4.605V3.75C18.7504 3.55109 18.6713 3.36032 18.5307 3.21967C18.39 3.07902 18.1993 3 18.0004 3C17.8014 3 17.6107 3.07902 17.47 3.21967C17.3294 3.36032 17.2504 3.55109 17.2504 3.75V4.605C16.6148 4.77771 16.0538 5.15475 15.6538 5.67795C15.2538 6.20114 15.0371 6.84142 15.0371 7.5C15.0371 8.15858 15.2538 8.79886 15.6538 9.32205C16.0538 9.84525 16.6148 10.2223 17.2504 10.395V20.25C17.2504 20.4489 17.3294 20.6397 17.47 20.7803C17.6107 20.921 17.8014 21 18.0004 21C18.1993 21 18.39 20.921 18.5307 20.7803C18.6713 20.6397 18.7504 20.4489 18.7504 20.25V10.395C19.3927 10.2291 19.962 9.85505 20.3691 9.33123C20.7762 8.80741 20.9982 8.16342 21.0004 7.5ZM18.0004 9C17.7037 9 17.4137 8.91203 17.167 8.7472C16.9203 8.58238 16.7281 8.34811 16.6145 8.07403C16.501 7.79994 16.4713 7.49834 16.5292 7.20736C16.5871 6.91639 16.7299 6.64912 16.9397 6.43934C17.1495 6.22956 17.4168 6.0867 17.7077 6.02882C17.9987 5.97094 18.3003 6.00065 18.5744 6.11418C18.8485 6.22771 19.0827 6.41997 19.2476 6.66664C19.4124 6.91332 19.5004 7.20333 19.5004 7.5C19.5004 7.89782 19.3423 8.27936 19.061 8.56066C18.7797 8.84196 18.3982 9 18.0004 9Z" fill="#231F20"/>
</svg>
