<svg width="65" height="31" viewBox="0 0 65 31" fill="none" xmlns="http://www.w3.org/2000/svg">
<path d="M10.14 26.94L0.6 17.4L10.14 7.86L12.74 10.46L5.66 17.4L12.74 24.34L10.14 26.94ZM34.0231 30V5.8L28.6031 9.1V4.44L34.0231 1.2H38.2831V30H34.0231ZM54.9181 30.6C52.9581 30.6 51.2248 30.1733 49.7181 29.32C48.2115 28.4533 47.0248 27.2667 46.1581 25.76C45.3048 24.2533 44.8781 22.52 44.8781 20.56V10.64C44.8781 8.68 45.3048 6.94667 46.1581 5.44C47.0248 3.93333 48.2115 2.75333 49.7181 1.9C51.2248 1.03333 52.9581 0.599999 54.9181 0.599999C56.8781 0.599999 58.6115 1.03333 60.1181 1.9C61.6248 2.75333 62.8048 3.93333 63.6581 5.44C64.5248 6.94667 64.9581 8.68 64.9581 10.64V20.56C64.9581 22.52 64.5248 24.2533 63.6581 25.76C62.8048 27.2667 61.6248 28.4533 60.1181 29.32C58.6115 30.1733 56.8781 30.6 54.9181 30.6ZM54.9181 26.6C55.9848 26.6 56.9515 26.3467 57.8181 25.84C58.6981 25.32 59.3981 24.6267 59.9181 23.76C60.4381 22.88 60.6981 21.9 60.6981 20.82V10.34C60.6981 9.27333 60.4381 8.30667 59.9181 7.44C59.3981 6.56 58.6981 5.86667 57.8181 5.36C56.9515 4.84 55.9848 4.58 54.9181 4.58C53.8515 4.58 52.8781 4.84 51.9981 5.36C51.1315 5.86667 50.4381 6.56 49.9181 7.44C49.3981 8.30667 49.1381 9.27333 49.1381 10.34V20.82C49.1381 21.9 49.3981 22.88 49.9181 23.76C50.4381 24.6267 51.1315 25.32 51.9981 25.84C52.8781 26.3467 53.8515 26.6 54.9181 26.6Z" fill="#3E404B"/>
</svg>
