<svg width="48" height="49" viewBox="0 0 48 49" fill="none" xmlns="http://www.w3.org/2000/svg">
<path d="M25.1297 13.2969H22.8751C22.6688 13.2969 22.5001 13.4656 22.5001 13.6719V26.5766C22.5001 26.6984 22.5563 26.8109 22.6548 26.8813L30.4032 32.5391C30.5719 32.6609 30.8063 32.6281 30.9282 32.4594L32.2688 30.6313C32.3954 30.4578 32.3579 30.2234 32.1891 30.1063L25.5047 25.2734V13.6719C25.5047 13.4656 25.336 13.2969 25.1297 13.2969ZM35.4329 16.8219L42.7829 18.6172C43.0173 18.6734 43.2469 18.4953 43.2469 18.2563L43.2844 10.6859C43.2844 10.3719 42.9235 10.1938 42.6797 10.3906L35.2923 16.1609C35.2364 16.2041 35.1939 16.2622 35.1696 16.3285C35.1453 16.3948 35.1402 16.4665 35.1549 16.5356C35.1696 16.6046 35.2035 16.6681 35.2527 16.7188C35.3018 16.7694 35.3643 16.8052 35.4329 16.8219ZM43.2938 30.9359L40.636 30.0219C40.5433 29.9901 40.4419 29.9959 40.3534 30.0379C40.265 30.08 40.1965 30.155 40.1626 30.2469C40.0735 30.4859 39.9797 30.7203 39.8813 30.9547C39.0469 32.9281 37.8516 34.7047 36.3235 36.2281C34.8123 37.744 33.0214 38.9522 31.0501 39.7859C29.0078 40.6494 26.8126 41.0926 24.5954 41.0891C22.3548 41.0891 20.1844 40.6531 18.1407 39.7859C16.1693 38.9522 14.3784 37.744 12.8673 36.2281C11.3438 34.7047 10.1485 32.9281 9.30944 30.9547C8.45077 28.9113 8.01083 26.7164 8.01569 24.5C8.01569 22.2594 8.45163 20.0844 9.31881 18.0406C10.1532 16.0672 11.3485 14.2906 12.8766 12.7672C14.3878 11.2513 16.1787 10.0431 18.1501 9.20938C20.1844 8.34219 22.3594 7.90626 24.6001 7.90626C26.8407 7.90626 29.011 8.34219 31.0548 9.20938C33.0261 10.0431 34.817 11.2513 36.3282 12.7672C36.8063 13.25 37.2563 13.7516 37.6688 14.2813L40.4719 12.0875C36.7829 7.37188 31.0407 4.33907 24.5907 4.34376C13.3594 4.34844 4.34069 13.4703 4.45319 24.7063C4.56569 35.7453 13.5423 44.6563 24.6001 44.6563C33.2954 44.6563 40.7016 39.1438 43.5235 31.4234C43.5938 31.2266 43.4907 31.0063 43.2938 30.9359Z" fill="#3E404B"/>
</svg>
