<svg width="218" height="60" viewBox="0 0 218 60" fill="none" xmlns="http://www.w3.org/2000/svg">
<g clip-path="url(#clip0_13635_2355)">
<path d="M101.3 16.3984L85.3963 33.9723C85.0585 34.342 84.8736 34.8264 84.8736 35.33C84.8736 36.4455 85.7788 37.3506 86.8943 37.3506H100.312C101.428 37.3506 102.333 38.2558 102.333 39.3713V41.411C102.333 42.5265 101.428 43.4317 100.312 43.4317H73.3043C72.1888 43.4317 71.2837 42.5265 71.2837 41.411C71.2837 40.9011 71.4749 40.4166 71.8191 40.0469L87.946 22.4858C88.2902 22.1097 88.4815 21.6253 88.4815 21.1154C88.4815 19.9999 87.5763 19.0947 86.4608 19.0947H73.3043C72.1888 19.0947 71.2837 18.1896 71.2837 17.0741V15.0343C71.2837 13.9188 72.1888 13.0137 73.3043 13.0137H99.8022C100.918 13.0137 101.823 13.9188 101.823 15.0343V15.0471C101.823 15.5506 101.638 16.0287 101.3 16.4048V16.3984Z" fill="white"/>
<path d="M112.652 13.2814V13.9762C112.652 15.0917 111.747 15.9968 110.631 15.9968H108.649C107.534 15.9968 106.628 15.0917 106.628 13.9762V13.2814C106.628 12.1659 107.534 11.2607 108.649 11.2607H110.631C111.747 11.2607 112.652 12.1659 112.652 13.2814ZM108.649 19.4517H110.631C111.747 19.4517 112.652 20.3568 112.652 21.4723V41.4174C112.652 42.5329 111.747 43.438 110.631 43.438H108.649C107.534 43.438 106.628 42.5329 106.628 41.4174V21.4723C106.628 20.3568 107.534 19.4517 108.649 19.4517Z" fill="white"/>
<path d="M133.394 32.5819L140.476 39.804C140.846 40.1801 141.056 40.69 141.056 41.2191V41.4167C141.056 42.5322 140.151 43.4373 139.036 43.4373H136.275C135.74 43.4373 135.224 43.2206 134.841 42.8445L127.007 34.9723C126.631 34.5898 126.115 34.3731 125.573 34.3731H124.757C123.642 34.3731 122.737 35.2783 122.737 36.3938V41.4231C122.737 42.5386 121.831 43.4437 120.716 43.4437H118.74C117.624 43.4437 116.719 42.5386 116.719 41.4231V13.2169C116.719 12.1014 117.624 11.1963 118.74 11.1963H120.722C121.838 11.1963 122.743 12.1014 122.743 13.2169V26.1439C122.743 27.2594 123.642 28.1582 124.757 28.1646H125.599C126.128 28.1646 126.638 27.9542 127.014 27.5845L135.077 19.6741C135.453 19.3044 135.963 19.094 136.492 19.094H139.042C140.157 19.094 141.063 19.9992 141.063 21.1146V21.2995C141.063 21.8413 140.846 22.3576 140.463 22.7401L133.42 29.739C133.037 30.1215 132.821 30.6378 132.821 31.1732C132.821 31.7087 133.025 32.2059 133.388 32.5819H133.394Z" fill="white"/>
<path d="M167.745 27.177V35.5337C167.745 39.9001 164.207 43.4314 159.847 43.4314H151.491C146.901 43.4314 143.179 39.7089 143.179 35.1194V26.7627C143.179 22.4983 146.64 19.0371 150.904 19.0371H159.618C164.112 19.0371 167.752 22.6832 167.752 27.1707L167.745 27.177ZM161.486 25.1309H153.129C151.089 25.1309 149.438 26.7818 149.438 28.8216V37.3568H157.623C159.758 37.3568 161.492 35.6229 161.492 33.4876V25.1309H161.486Z" fill="white"/>
<path d="M217.707 27.177V35.5337C217.707 39.9001 214.169 43.4314 209.809 43.4314H201.452C196.863 43.4314 193.14 39.7089 193.14 35.1194V26.7627C193.14 22.4983 196.601 19.0371 200.866 19.0371H209.573C214.067 19.0371 217.707 22.6832 217.707 27.1707V27.177ZM211.447 25.1309H203.09C201.051 25.1309 199.4 26.7818 199.4 28.8216V37.3568H207.584C209.72 37.3568 211.453 35.6229 211.453 33.4876V25.1309H211.447Z" fill="white"/>
<path d="M190.782 26.4823V29.0702C190.782 30.1857 189.877 31.0908 188.761 31.0908H186.543C185.427 31.0908 184.522 30.1857 184.522 29.0702V27.1452C184.522 26.0297 183.617 25.1245 182.502 25.1245H177.855V43.4314C174.4 43.4314 171.595 40.6267 171.595 37.1719V19.0371H183.337C187.448 19.0371 190.782 22.3709 190.782 26.4823Z" fill="white"/>
<path d="M54.1303 16.0983L52.1797 18.5332C52.1287 18.597 52.0778 18.6544 52.0204 18.7181L37.0919 37.2736V19.8208H0.312339C0.203976 19.8208 0.101988 19.8208 0 19.8081C3.96479 8.2388 14.9349 -0.0732422 27.8428 -0.0732422C39.3292 -0.0732422 49.2731 6.505 54.1239 16.0983H54.1303ZM55.692 38.9118C51.7272 50.4747 40.7571 58.7931 27.8428 58.7931C16.3564 58.7931 6.40614 52.2149 1.55532 42.6152L3.52497 40.1675C3.57596 40.1038 3.62696 40.0464 3.68433 39.9826L18.6129 21.4272V38.899H55.386C55.488 38.899 55.59 38.899 55.6856 38.9118H55.692Z" fill="white"/>
<path d="M153.884 58.0742H153.178L155.221 52.5112H155.916L157.959 58.0742H157.252L155.59 53.3913H155.547L153.884 58.0742ZM154.145 55.9012H156.992V56.4988H154.145V55.9012ZM159.379 55.5644V58.0742H158.738V53.902H159.358V54.5539H159.412C159.51 54.342 159.658 54.1718 159.857 54.0432C160.057 53.9128 160.314 53.8476 160.629 53.8476C160.911 53.8476 161.159 53.9056 161.37 54.0215C161.582 54.1356 161.747 54.3094 161.865 54.543C161.982 54.7748 162.041 55.0682 162.041 55.4231V58.0742H161.4V55.4666C161.4 55.1388 161.315 54.8835 161.145 54.7006C160.975 54.5159 160.741 54.4235 160.444 54.4235C160.239 54.4235 160.057 54.4679 159.895 54.5566C159.736 54.6453 159.61 54.7748 159.518 54.945C159.426 55.1153 159.379 55.3217 159.379 55.5644ZM170.145 55.2927C170.145 55.8794 170.039 56.3865 169.827 56.8139C169.615 57.2412 169.324 57.5708 168.955 57.8026C168.586 58.0344 168.164 58.1503 167.689 58.1503C167.215 58.1503 166.793 58.0344 166.423 57.8026C166.054 57.5708 165.763 57.2412 165.551 56.8139C165.34 56.3865 165.234 55.8794 165.234 55.2927C165.234 54.706 165.34 54.199 165.551 53.7716C165.763 53.3442 166.054 53.0146 166.423 52.7829C166.793 52.5511 167.215 52.4352 167.689 52.4352C168.164 52.4352 168.586 52.5511 168.955 52.7829C169.324 53.0146 169.615 53.3442 169.827 53.7716C170.039 54.199 170.145 54.706 170.145 55.2927ZM169.493 55.2927C169.493 54.811 169.412 54.4045 169.251 54.0731C169.092 53.7417 168.875 53.4909 168.602 53.3207C168.33 53.1505 168.026 53.0653 167.689 53.0653C167.352 53.0653 167.047 53.1505 166.774 53.3207C166.502 53.4909 166.286 53.7417 166.125 54.0731C165.965 54.4045 165.886 54.811 165.886 55.2927C165.886 55.7744 165.965 56.181 166.125 56.5123C166.286 56.8437 166.502 57.0945 166.774 57.2648C167.047 57.435 167.352 57.5201 167.689 57.5201C168.026 57.5201 168.33 57.435 168.602 57.2648C168.875 57.0945 169.092 56.8437 169.251 56.5123C169.412 56.181 169.493 55.7744 169.493 55.2927ZM171.191 58.0742V53.902H171.81V54.5322H171.853C171.929 54.3257 172.067 54.1582 172.266 54.0296C172.465 53.9011 172.69 53.8368 172.94 53.8368C172.987 53.8368 173.046 53.8377 173.116 53.8395C173.187 53.8413 173.24 53.844 173.277 53.8476V54.4996C173.255 54.4941 173.205 54.486 173.127 54.4751C173.051 54.4624 172.971 54.4561 172.885 54.4561C172.683 54.4561 172.502 54.4987 172.342 54.5838C172.185 54.6671 172.06 54.783 171.967 54.9315C171.877 55.0781 171.832 55.2456 171.832 55.434V58.0742H171.191ZM176.112 53.902V54.4452H173.95V53.902H176.112ZM174.58 52.9024H175.221V56.879C175.221 57.0601 175.248 57.1959 175.3 57.2865C175.355 57.3752 175.423 57.435 175.507 57.4658C175.592 57.4947 175.681 57.5092 175.776 57.5092C175.846 57.5092 175.904 57.5056 175.949 57.4984C175.995 57.4893 176.031 57.4821 176.058 57.4766L176.189 58.0525C176.145 58.0688 176.084 58.0851 176.007 58.1014C175.929 58.1195 175.83 58.1285 175.71 58.1285C175.529 58.1285 175.352 58.0896 175.178 58.0117C175.006 57.9339 174.863 57.8153 174.749 57.6559C174.637 57.4966 174.58 57.2955 174.58 57.0529V52.9024ZM177.807 55.5644V58.0742H177.166V52.5112H177.807V54.5539H177.862C177.96 54.3384 178.106 54.1673 178.302 54.0405C178.499 53.9119 178.762 53.8476 179.09 53.8476C179.374 53.8476 179.623 53.9047 179.837 54.0188C180.05 54.131 180.216 54.304 180.334 54.5376C180.453 54.7694 180.513 55.0646 180.513 55.4231V58.0742H179.872V55.4666C179.872 55.1352 179.786 54.8789 179.614 54.6979C179.444 54.515 179.207 54.4235 178.905 54.4235C178.695 54.4235 178.506 54.4679 178.34 54.5566C178.175 54.6453 178.045 54.7748 177.949 54.945C177.855 55.1153 177.807 55.3217 177.807 55.5644ZM183.381 58.1611C183.004 58.1611 182.673 58.0715 182.389 57.8922C182.107 57.7129 181.886 57.4621 181.726 57.1398C181.569 56.8175 181.49 56.4408 181.49 56.0098C181.49 55.5752 181.569 55.1958 181.726 54.8717C181.886 54.5475 182.107 54.2958 182.389 54.1166C182.673 53.9373 183.004 53.8476 183.381 53.8476C183.757 53.8476 184.087 53.9373 184.369 54.1166C184.654 54.2958 184.875 54.5475 185.032 54.8717C185.191 55.1958 185.271 55.5752 185.271 56.0098C185.271 56.4408 185.191 56.8175 185.032 57.1398C184.875 57.4621 184.654 57.7129 184.369 57.8922C184.087 58.0715 183.757 58.1611 183.381 58.1611ZM183.381 57.5853C183.667 57.5853 183.902 57.5119 184.087 57.3653C184.272 57.2186 184.408 57.0257 184.497 56.7867C184.586 56.5477 184.63 56.2887 184.63 56.0098C184.63 55.731 184.586 55.4711 184.497 55.2302C184.408 54.9894 184.272 54.7947 184.087 54.6462C183.902 54.4977 183.667 54.4235 183.381 54.4235C183.094 54.4235 182.859 54.4977 182.674 54.6462C182.49 54.7947 182.353 54.9894 182.264 55.2302C182.175 55.4711 182.131 55.731 182.131 56.0098C182.131 56.2887 182.175 56.5477 182.264 56.7867C182.353 57.0257 182.49 57.2186 182.674 57.3653C182.859 57.5119 183.094 57.5853 183.381 57.5853ZM186.337 58.0742V52.5112H189.694V53.1088H187.01V54.9885H189.52V55.5861H187.01V57.4766H189.737V58.0742H186.337ZM191.299 53.902L192.299 55.6078L193.299 53.902H194.037L192.69 55.9881L194.037 58.0742H193.299L192.299 56.4553L191.299 58.0742H190.56L191.886 55.9881L190.56 53.902H191.299ZM197.19 58.0742V52.5112H199.135C199.523 52.5112 199.842 52.5782 200.094 52.7122C200.346 52.8444 200.533 53.0228 200.656 53.2473C200.779 53.4701 200.841 53.7173 200.841 53.9889C200.841 54.2279 200.798 54.4253 200.713 54.581C200.63 54.7368 200.52 54.8599 200.382 54.9505C200.246 55.041 200.099 55.108 199.939 55.1515V55.2058C200.109 55.2167 200.281 55.2764 200.453 55.3851C200.625 55.4937 200.769 55.6495 200.884 55.8523C201 56.0551 201.058 56.3032 201.058 56.5965C201.058 56.8754 200.995 57.1262 200.868 57.349C200.741 57.5717 200.541 57.7483 200.268 57.8786C199.994 58.009 199.639 58.0742 199.2 58.0742H197.19ZM197.864 57.4766H199.2C199.64 57.4766 199.953 57.3915 200.137 57.2213C200.324 57.0493 200.417 56.841 200.417 56.5965C200.417 56.4082 200.369 56.2344 200.273 56.075C200.177 55.9138 200.041 55.7853 199.863 55.6893C199.686 55.5915 199.476 55.5426 199.233 55.5426H197.864V57.4766ZM197.864 54.9559H199.113C199.316 54.9559 199.499 54.9161 199.662 54.8364C199.827 54.7567 199.957 54.6444 200.053 54.4996C200.151 54.3547 200.2 54.1845 200.2 53.9889C200.2 53.7444 200.115 53.5371 199.945 53.3669C199.774 53.1948 199.505 53.1088 199.135 53.1088H197.864V54.9559ZM202.078 58.0742V53.902H202.698V54.5322H202.741C202.817 54.3257 202.955 54.1582 203.154 54.0296C203.353 53.9011 203.578 53.8368 203.828 53.8368C203.875 53.8368 203.934 53.8377 204.004 53.8395C204.075 53.8413 204.128 53.844 204.164 53.8476V54.4996C204.143 54.4941 204.093 54.486 204.015 54.4751C203.939 54.4624 203.858 54.4561 203.773 54.4561C203.57 54.4561 203.389 54.4987 203.23 54.5838C203.072 54.6671 202.948 54.783 202.855 54.9315C202.765 55.0781 202.719 55.2456 202.719 55.434V58.0742H202.078ZM206.152 58.172C205.888 58.172 205.648 58.1222 205.432 58.0226C205.217 57.9212 205.046 57.7754 204.919 57.5853C204.792 57.3933 204.729 57.1615 204.729 56.8899C204.729 56.6509 204.776 56.4571 204.87 56.3086C204.964 56.1583 205.09 56.0406 205.248 55.9555C205.405 55.8704 205.579 55.807 205.769 55.7654C205.961 55.7219 206.154 55.6875 206.348 55.6621C206.601 55.6295 206.807 55.6051 206.964 55.5888C207.124 55.5707 207.24 55.5408 207.312 55.4992C207.386 55.4575 207.423 55.3851 207.423 55.2819V55.2601C207.423 54.9921 207.35 54.7839 207.203 54.6354C207.058 54.4869 206.838 54.4126 206.543 54.4126C206.237 54.4126 205.997 54.4796 205.823 54.6136C205.65 54.7476 205.527 54.8907 205.457 55.0428L204.848 54.8255C204.957 54.572 205.102 54.3746 205.283 54.2334C205.466 54.0903 205.665 53.9907 205.88 53.9346C206.098 53.8766 206.311 53.8476 206.521 53.8476C206.656 53.8476 206.809 53.8639 206.983 53.8965C207.159 53.9273 207.328 53.9916 207.491 54.0894C207.656 54.1872 207.793 54.3348 207.901 54.5322C208.01 54.7295 208.064 54.9939 208.064 55.3253V58.0742H207.423V57.5092H207.391C207.347 57.5998 207.275 57.6967 207.173 57.7999C207.072 57.9031 206.937 57.9909 206.769 58.0634C206.6 58.1358 206.395 58.172 206.152 58.172ZM206.25 57.5961C206.503 57.5961 206.717 57.5463 206.891 57.4468C207.067 57.3472 207.199 57.2186 207.287 57.061C207.378 56.9035 207.423 56.7378 207.423 56.564V55.9772C207.396 56.0098 207.336 56.0397 207.244 56.0669C207.153 56.0922 207.048 56.1149 206.929 56.1348C206.811 56.1529 206.696 56.1692 206.584 56.1837C206.474 56.1963 206.384 56.2072 206.315 56.2163C206.148 56.238 205.993 56.2733 205.848 56.3222C205.705 56.3693 205.589 56.4408 205.5 56.5368C205.413 56.631 205.37 56.7595 205.37 56.9225C205.37 57.1452 205.452 57.3137 205.617 57.4277C205.784 57.54 205.995 57.5961 206.25 57.5961ZM209.875 55.5644V58.0742H209.234V53.902H209.854V54.5539H209.908C210.006 54.342 210.154 54.1718 210.354 54.0432C210.553 53.9128 210.81 53.8476 211.125 53.8476C211.407 53.8476 211.655 53.9056 211.867 54.0215C212.078 54.1356 212.243 54.3094 212.361 54.543C212.479 54.7748 212.537 55.0682 212.537 55.4231V58.0742H211.896V55.4666C211.896 55.1388 211.811 54.8835 211.641 54.7006C211.471 54.5159 211.237 54.4235 210.94 54.4235C210.736 54.4235 210.553 54.4679 210.392 54.5566C210.232 54.6453 210.106 54.7748 210.014 54.945C209.922 55.1153 209.875 55.3217 209.875 55.5644ZM215.284 58.1611C214.937 58.1611 214.63 58.0733 214.363 57.8977C214.097 57.7202 213.889 57.4703 213.739 57.148C213.588 56.8238 213.513 56.4408 213.513 55.999C213.513 55.5607 213.588 55.1804 213.739 54.8581C213.889 54.5358 214.098 54.2868 214.366 54.1111C214.634 53.9355 214.944 53.8476 215.295 53.8476C215.567 53.8476 215.781 53.8929 215.939 53.9835C216.098 54.0722 216.22 54.1736 216.303 54.2877C216.388 54.4 216.454 54.4923 216.501 54.5648H216.556V52.5112H217.197V58.0742H216.577V57.4332H216.501C216.454 57.5092 216.387 57.6052 216.3 57.7211C216.213 57.8352 216.089 57.9375 215.928 58.028C215.767 58.1168 215.552 58.1611 215.284 58.1611ZM215.371 57.5853C215.628 57.5853 215.846 57.5183 216.023 57.3843C216.201 57.2485 216.336 57.061 216.428 56.822C216.52 56.5812 216.566 56.3032 216.566 55.9881C216.566 55.6766 216.521 55.4041 216.431 55.1705C216.34 54.9351 216.206 54.7522 216.029 54.6218C215.851 54.4896 215.632 54.4235 215.371 54.4235C215.1 54.4235 214.873 54.4932 214.692 54.6327C214.513 54.7703 214.378 54.9577 214.287 55.1949C214.199 55.4303 214.154 55.6947 214.154 55.9881C214.154 56.2851 214.2 56.5549 214.29 56.7976C214.382 57.0384 214.518 57.2304 214.698 57.3734C214.879 57.5147 215.103 57.5853 215.371 57.5853Z" fill="#F3F3F3"/>
</g>
<defs>
<clipPath id="clip0_13635_2355">
<rect width="217.982" height="60" fill="white"/>
</clipPath>
</defs>
</svg>
