<svg width="200" height="56" viewBox="0 0 200 56" fill="none" xmlns="http://www.w3.org/2000/svg">
<path fill-rule="evenodd" clip-rule="evenodd" d="M4.50547 10C6.99388 10 9.01093 12.017 9.01093 14.5055C9.01093 16.9939 6.99388 19.011 4.50547 19.011C2.01705 19.011 0 16.9939 0 14.5055C0 12.017 2.01705 10 4.50547 10ZM16.9721 44.1735L12.8609 37.2798C9.80539 32.1561 17.5048 27.3983 20.5594 32.52L24.6706 39.4137C27.7472 44.5722 19.9869 49.2284 16.9726 44.1735H16.9721ZM9.01142 19.9758V19.9812L17.634 11.3213C19.3824 9.56547 22.2499 9.55907 24.0057 11.3075C25.7616 13.056 25.768 15.9235 24.0195 17.6793L9.01093 32.7522V41.8393C9.01093 44.3174 6.98357 46.3447 4.50547 46.3447C2.02736 46.3447 0 44.3174 0 41.8393V28.9951V28.9872L9.01093 19.9762L9.01142 19.9758Z" fill="#20A0D8"/>
<path d="M46.9919 41L38.9401 31.937V41H35.5321V13.2868H38.9401V29.5777L46.8421 20.4773H51.5982L41.9361 30.7012L51.6357 41H46.9919ZM58.2138 13.2868V41H54.8058V13.2868H58.2138ZM65.7822 17.1442C65.1331 17.1442 64.5838 16.9195 64.1344 16.4701C63.685 16.0207 63.4603 15.4714 63.4603 14.8223C63.4603 14.1732 63.685 13.6239 64.1344 13.1745C64.5838 12.7251 65.1331 12.5004 65.7822 12.5004C66.4064 12.5004 66.9307 12.7251 67.3551 13.1745C67.8045 13.6239 68.0292 14.1732 68.0292 14.8223C68.0292 15.4714 67.8045 16.0207 67.3551 16.4701C66.9307 16.9195 66.4064 17.1442 65.7822 17.1442ZM67.43 20.4773V41H64.0221V20.4773H67.43ZM83.2375 20.1028C85.7342 20.1028 87.7565 20.8643 89.3045 22.3872C90.8524 23.8853 91.6264 26.0574 91.6264 28.9036V41H88.2559V29.3904C88.2559 27.3432 87.744 25.7827 86.7204 24.7092C85.6968 23.6106 84.2986 23.0613 82.526 23.0613C80.7284 23.0613 79.2928 23.6231 78.2192 24.7466C77.1706 25.8701 76.6463 27.5054 76.6463 29.6526V41H73.2383V20.4773H76.6463V23.3984C77.3204 22.3498 78.2317 21.5384 79.3802 20.9641C80.5536 20.3899 81.8394 20.1028 83.2375 20.1028ZM98.9535 17.1442C98.3043 17.1442 97.755 16.9195 97.3056 16.4701C96.8562 16.0207 96.6315 15.4714 96.6315 14.8223C96.6315 14.1732 96.8562 13.6239 97.3056 13.1745C97.755 12.7251 98.3043 12.5004 98.9535 12.5004C99.5776 12.5004 100.102 12.7251 100.526 13.1745C100.976 13.6239 101.2 14.1732 101.2 14.8223C101.2 15.4714 100.976 16.0207 100.526 16.4701C100.102 16.9195 99.5776 17.1442 98.9535 17.1442ZM100.601 20.4773V41H97.1933V20.4773H100.601ZM117.869 41L109.818 31.937V41H106.41V13.2868H109.818V29.5777L117.72 20.4773H122.476L112.814 30.7012L122.513 41H117.869ZM134.035 23.286H129.728V41H126.32V23.286H123.661V20.4773H126.32V19.0167C126.32 16.7198 126.907 15.047 128.08 13.9984C129.278 12.9248 131.188 12.388 133.81 12.388V15.2343C132.312 15.2343 131.251 15.5339 130.627 16.1331C130.027 16.7073 129.728 17.6685 129.728 19.0167V20.4773H134.035V23.286ZM141.416 13.2868V41H138.008V13.2868H141.416ZM156.175 41.3371C154.253 41.3371 152.505 40.9001 150.932 40.0263C149.384 39.1525 148.161 37.9166 147.262 36.3187C146.388 34.6959 145.951 32.8234 145.951 30.7012C145.951 28.604 146.401 26.7564 147.299 25.1586C148.223 23.5357 149.471 22.2999 151.044 21.451C152.617 20.5772 154.377 20.1402 156.325 20.1402C158.272 20.1402 160.032 20.5772 161.605 21.451C163.178 22.2999 164.414 23.5232 165.313 25.1211C166.237 26.719 166.699 28.579 166.699 30.7012C166.699 32.8234 166.224 34.6959 165.275 36.3187C164.352 37.9166 163.091 39.1525 161.493 40.0263C159.895 40.9001 158.122 41.3371 156.175 41.3371ZM156.175 38.341C157.398 38.341 158.547 38.0539 159.62 37.4797C160.694 36.9054 161.555 36.0441 162.205 34.8956C162.879 33.7471 163.216 32.349 163.216 30.7012C163.216 29.0534 162.891 27.6552 162.242 26.5068C161.593 25.3583 160.744 24.5094 159.695 23.9602C158.647 23.3859 157.511 23.0988 156.287 23.0988C155.039 23.0988 153.891 23.3859 152.842 23.9602C151.818 24.5094 150.994 25.3583 150.37 26.5068C149.746 27.6552 149.434 29.0534 149.434 30.7012C149.434 32.374 149.734 33.7846 150.333 34.9331C150.957 36.0815 151.781 36.9429 152.805 37.5171C153.828 38.0664 154.952 38.341 156.175 38.341ZM198.518 20.4773L192.114 41H188.594L183.65 24.7092L178.707 41H175.187L168.745 20.4773H172.228L176.947 37.7044L182.04 20.4773H185.523L190.504 37.7418L195.148 20.4773H198.518Z" fill="#20A0D8"/>
</svg>
