<svg width="64" height="59" viewBox="0 0 64 59" fill="none" xmlns="http://www.w3.org/2000/svg">
<rect width="64" height="59" rx="4" fill="#EEF0FF"/>
<path d="M39.2395 12.7616C39.1267 12.6633 38.9872 12.6007 38.8388 12.5817C38.6903 12.5628 38.5396 12.5884 38.4058 12.6554L35.2676 14.2179L32.6476 9.86599C32.5803 9.75432 32.4852 9.66194 32.3717 9.59782C32.2581 9.53369 32.1299 9.5 31.9995 9.5C31.8691 9.5 31.7409 9.53369 31.6273 9.59782C31.5138 9.66194 31.4187 9.75432 31.3514 9.86599L28.7314 14.2197L25.5945 12.6572C25.461 12.5909 25.3108 12.5655 25.1629 12.5842C25.015 12.6029 24.8759 12.6649 24.7631 12.7624C24.6502 12.8598 24.5687 12.9885 24.5287 13.1321C24.4887 13.2757 24.492 13.428 24.5383 13.5697L26.8508 20.6547C26.874 20.7259 26.913 20.791 26.9647 20.8451C27.0165 20.8992 27.0797 20.941 27.1498 20.9674C27.2199 20.9938 27.295 21.0041 27.3696 20.9976C27.4441 20.9911 27.5163 20.9679 27.5808 20.9297C27.5964 20.9204 29.1945 19.9997 31.9995 19.9997C34.8045 19.9997 36.4026 20.9204 36.417 20.9291C36.4815 20.9676 36.5538 20.9911 36.6286 20.9979C36.7033 21.0046 36.7787 20.9944 36.849 20.9681C36.9193 20.9417 36.9828 20.8999 37.0347 20.8456C37.0866 20.7914 37.1256 20.7261 37.1489 20.6547L39.4614 13.5716C39.5089 13.4298 39.5132 13.2771 39.4737 13.1328C39.4342 12.9886 39.3527 12.8594 39.2395 12.7616ZM34.9895 17.7997C34.9691 17.9154 34.9086 18.0202 34.8187 18.0957C34.7287 18.1713 34.6151 18.2127 34.4976 18.2129C34.4683 18.2128 34.439 18.2103 34.4101 18.2054C32.8131 17.9312 31.181 17.9312 29.5839 18.2054C29.5192 18.2168 29.4529 18.2153 29.3888 18.2011C29.3247 18.1869 29.264 18.1602 29.2102 18.1225C29.1015 18.0465 29.0276 17.9304 29.0045 17.7997C28.9815 17.6691 29.0113 17.5347 29.0873 17.426C29.1634 17.3174 29.2795 17.2434 29.4101 17.2204C31.1222 16.9262 32.8718 16.9262 34.5839 17.2204C34.6488 17.2315 34.7109 17.2553 34.7665 17.2904C34.8222 17.3256 34.8704 17.3714 34.9083 17.4253C34.9462 17.4791 34.9732 17.5399 34.9875 17.6041C35.0019 17.6684 35.0034 17.7349 34.992 17.7997H34.9895Z" fill="#001FCC"/>
<rect x="6" y="25" width="52" height="16" rx="2" fill="#DCE0F9"/>
<path d="M10.42 35V30.68H12.166C12.208 30.68 12.26 30.682 12.322 30.686C12.384 30.688 12.443 30.694 12.499 30.704C12.739 30.742 12.939 30.824 13.099 30.95C13.261 31.076 13.382 31.235 13.462 31.427C13.542 31.619 13.582 31.831 13.582 32.063C13.582 32.297 13.542 32.51 13.462 32.702C13.382 32.894 13.261 33.053 13.099 33.179C12.939 33.305 12.739 33.387 12.499 33.425C12.443 33.433 12.383 33.439 12.319 33.443C12.257 33.447 12.206 33.449 12.166 33.449H11.047V35H10.42ZM11.047 32.855H12.142C12.182 32.855 12.226 32.853 12.274 32.849C12.324 32.845 12.371 32.838 12.415 32.828C12.543 32.798 12.646 32.743 12.724 32.663C12.802 32.581 12.858 32.487 12.892 32.381C12.926 32.275 12.943 32.169 12.943 32.063C12.943 31.957 12.926 31.852 12.892 31.748C12.858 31.642 12.802 31.549 12.724 31.469C12.646 31.387 12.543 31.331 12.415 31.301C12.371 31.289 12.324 31.281 12.274 31.277C12.226 31.273 12.182 31.271 12.142 31.271H11.047V32.855ZM14.1817 35V30.68H15.9277C15.9697 30.68 16.0217 30.682 16.0837 30.686C16.1457 30.688 16.2047 30.694 16.2607 30.704C16.5007 30.742 16.7007 30.824 16.8607 30.95C17.0227 31.076 17.1437 31.235 17.2237 31.427C17.3037 31.619 17.3437 31.831 17.3437 32.063C17.3437 32.407 17.2557 32.704 17.0797 32.954C16.9037 33.202 16.6397 33.357 16.2877 33.419L16.0327 33.449H14.8087V35H14.1817ZM16.7077 35L15.8557 33.242L16.4887 33.08L17.4247 35H16.7077ZM14.8087 32.855H15.9037C15.9437 32.855 15.9877 32.853 16.0357 32.849C16.0857 32.845 16.1327 32.838 16.1767 32.828C16.3047 32.798 16.4077 32.743 16.4857 32.663C16.5637 32.581 16.6197 32.487 16.6537 32.381C16.6877 32.275 16.7047 32.169 16.7047 32.063C16.7047 31.957 16.6877 31.852 16.6537 31.748C16.6197 31.642 16.5637 31.549 16.4857 31.469C16.4077 31.387 16.3047 31.331 16.1767 31.301C16.1327 31.289 16.0857 31.281 16.0357 31.277C15.9877 31.273 15.9437 31.271 15.9037 31.271H14.8087V32.855ZM19.8871 35.09C19.4551 35.09 19.0871 34.996 18.7831 34.808C18.4791 34.618 18.2461 34.354 18.0841 34.016C17.9241 33.678 17.8441 33.286 17.8441 32.84C17.8441 32.394 17.9241 32.002 18.0841 31.664C18.2461 31.326 18.4791 31.063 18.7831 30.875C19.0871 30.685 19.4551 30.59 19.8871 30.59C20.3171 30.59 20.6841 30.685 20.9881 30.875C21.2941 31.063 21.5271 31.326 21.6871 31.664C21.8471 32.002 21.9271 32.394 21.9271 32.84C21.9271 33.286 21.8471 33.678 21.6871 34.016C21.5271 34.354 21.2941 34.618 20.9881 34.808C20.6841 34.996 20.3171 35.09 19.8871 35.09ZM19.8871 34.493C20.1931 34.497 20.4471 34.43 20.6491 34.292C20.8531 34.152 21.0061 33.958 21.1081 33.71C21.2101 33.46 21.2611 33.17 21.2611 32.84C21.2611 32.51 21.2101 32.222 21.1081 31.976C21.0061 31.728 20.8531 31.535 20.6491 31.397C20.4471 31.259 20.1931 31.189 19.8871 31.187C19.5811 31.183 19.3261 31.25 19.1221 31.388C18.9201 31.526 18.7681 31.72 18.6661 31.97C18.5641 32.22 18.5121 32.51 18.5101 32.84C18.5081 33.17 18.5581 33.459 18.6601 33.707C18.7621 33.953 18.9151 34.145 19.1191 34.283C19.3251 34.421 19.5811 34.491 19.8871 34.493ZM22.5255 35V30.68H25.0845V31.307H23.1525V32.525H24.7245V33.155H23.1525V35H22.5255ZM25.6251 35V30.68H28.3851V31.271H26.2521V32.483H28.0251V33.074H26.2521V34.409H28.3851V35H25.6251ZM30.5895 35.09C30.2795 35.09 29.9995 35.037 29.7495 34.931C29.5015 34.823 29.2965 34.67 29.1345 34.472C28.9745 34.272 28.8705 34.035 28.8225 33.761L29.4765 33.662C29.5425 33.926 29.6805 34.132 29.8905 34.28C30.1005 34.426 30.3455 34.499 30.6255 34.499C30.7995 34.499 30.9595 34.472 31.1055 34.418C31.2515 34.362 31.3685 34.283 31.4565 34.181C31.5465 34.077 31.5915 33.953 31.5915 33.809C31.5915 33.731 31.5775 33.662 31.5495 33.602C31.5235 33.542 31.4865 33.49 31.4385 33.446C31.3925 33.4 31.3355 33.361 31.2675 33.329C31.2015 33.295 31.1285 33.266 31.0485 33.242L29.9415 32.915C29.8335 32.883 29.7235 32.842 29.6115 32.792C29.4995 32.74 29.3965 32.673 29.3025 32.591C29.2105 32.507 29.1355 32.404 29.0775 32.282C29.0195 32.158 28.9905 32.008 28.9905 31.832C28.9905 31.566 29.0585 31.341 29.1945 31.157C29.3325 30.971 29.5185 30.831 29.7525 30.737C29.9865 30.641 30.2485 30.593 30.5385 30.593C30.8305 30.597 31.0915 30.649 31.3215 30.749C31.5535 30.849 31.7455 30.993 31.8975 31.181C32.0515 31.367 32.1575 31.593 32.2155 31.859L31.5435 31.973C31.5135 31.811 31.4495 31.672 31.3515 31.556C31.2535 31.438 31.1335 31.348 30.9915 31.286C30.8495 31.222 30.6955 31.189 30.5295 31.187C30.3695 31.183 30.2225 31.207 30.0885 31.259C29.9565 31.311 29.8505 31.384 29.7705 31.478C29.6925 31.572 29.6535 31.68 29.6535 31.802C29.6535 31.922 29.6885 32.019 29.7585 32.093C29.8285 32.167 29.9145 32.226 30.0165 32.27C30.1205 32.312 30.2235 32.347 30.3255 32.375L31.1235 32.6C31.2235 32.628 31.3365 32.666 31.4625 32.714C31.5905 32.76 31.7135 32.825 31.8315 32.909C31.9515 32.993 32.0505 33.105 32.1285 33.245C32.2065 33.383 32.2455 33.557 32.2455 33.767C32.2455 33.985 32.2015 34.177 32.1135 34.343C32.0255 34.507 31.9045 34.645 31.7505 34.757C31.5985 34.867 31.4225 34.95 31.2225 35.006C31.0225 35.062 30.8115 35.09 30.5895 35.09ZM34.5387 35.09C34.2287 35.09 33.9487 35.037 33.6987 34.931C33.4507 34.823 33.2457 34.67 33.0837 34.472C32.9237 34.272 32.8197 34.035 32.7717 33.761L33.4257 33.662C33.4917 33.926 33.6297 34.132 33.8397 34.28C34.0497 34.426 34.2947 34.499 34.5747 34.499C34.7487 34.499 34.9087 34.472 35.0547 34.418C35.2007 34.362 35.3177 34.283 35.4057 34.181C35.4957 34.077 35.5407 33.953 35.5407 33.809C35.5407 33.731 35.5267 33.662 35.4987 33.602C35.4727 33.542 35.4357 33.49 35.3877 33.446C35.3417 33.4 35.2847 33.361 35.2167 33.329C35.1507 33.295 35.0777 33.266 34.9977 33.242L33.8907 32.915C33.7827 32.883 33.6727 32.842 33.5607 32.792C33.4487 32.74 33.3457 32.673 33.2517 32.591C33.1597 32.507 33.0847 32.404 33.0267 32.282C32.9687 32.158 32.9397 32.008 32.9397 31.832C32.9397 31.566 33.0077 31.341 33.1437 31.157C33.2817 30.971 33.4677 30.831 33.7017 30.737C33.9357 30.641 34.1977 30.593 34.4877 30.593C34.7797 30.597 35.0407 30.649 35.2707 30.749C35.5027 30.849 35.6947 30.993 35.8467 31.181C36.0007 31.367 36.1067 31.593 36.1647 31.859L35.4927 31.973C35.4627 31.811 35.3987 31.672 35.3007 31.556C35.2027 31.438 35.0827 31.348 34.9407 31.286C34.7987 31.222 34.6447 31.189 34.4787 31.187C34.3187 31.183 34.1717 31.207 34.0377 31.259C33.9057 31.311 33.7997 31.384 33.7197 31.478C33.6417 31.572 33.6027 31.68 33.6027 31.802C33.6027 31.922 33.6377 32.019 33.7077 32.093C33.7777 32.167 33.8637 32.226 33.9657 32.27C34.0697 32.312 34.1727 32.347 34.2747 32.375L35.0727 32.6C35.1727 32.628 35.2857 32.666 35.4117 32.714C35.5397 32.76 35.6627 32.825 35.7807 32.909C35.9007 32.993 35.9997 33.105 36.0777 33.245C36.1557 33.383 36.1947 33.557 36.1947 33.767C36.1947 33.985 36.1507 34.177 36.0627 34.343C35.9747 34.507 35.8537 34.645 35.6997 34.757C35.5477 34.867 35.3717 34.95 35.1717 35.006C34.9717 35.062 34.7607 35.09 34.5387 35.09ZM36.8941 35V30.68H37.5211V35H36.8941ZM40.225 35.09C39.793 35.09 39.425 34.996 39.121 34.808C38.817 34.618 38.584 34.354 38.422 34.016C38.262 33.678 38.182 33.286 38.182 32.84C38.182 32.394 38.262 32.002 38.422 31.664C38.584 31.326 38.817 31.063 39.121 30.875C39.425 30.685 39.793 30.59 40.225 30.59C40.655 30.59 41.022 30.685 41.326 30.875C41.632 31.063 41.865 31.326 42.025 31.664C42.185 32.002 42.265 32.394 42.265 32.84C42.265 33.286 42.185 33.678 42.025 34.016C41.865 34.354 41.632 34.618 41.326 34.808C41.022 34.996 40.655 35.09 40.225 35.09ZM40.225 34.493C40.531 34.497 40.785 34.43 40.987 34.292C41.191 34.152 41.344 33.958 41.446 33.71C41.548 33.46 41.599 33.17 41.599 32.84C41.599 32.51 41.548 32.222 41.446 31.976C41.344 31.728 41.191 31.535 40.987 31.397C40.785 31.259 40.531 31.189 40.225 31.187C39.919 31.183 39.664 31.25 39.46 31.388C39.258 31.526 39.106 31.72 39.004 31.97C38.902 32.22 38.85 32.51 38.848 32.84C38.846 33.17 38.896 33.459 38.998 33.707C39.1 33.953 39.253 34.145 39.457 34.283C39.663 34.421 39.919 34.491 40.225 34.493ZM42.8634 35V30.68H43.4994L45.6264 33.89V30.68H46.2624V35H45.6264L43.4994 31.787V35H42.8634ZM46.7997 35L48.2037 30.68H49.1067L50.5107 35H49.8597L48.5667 31.058H48.7287L47.4507 35H46.7997ZM47.5287 34.025V33.437H49.7847V34.025H47.5287ZM51.1089 35V30.68H51.7359V34.409H53.6919V35H51.1089Z" fill="#001FCC"/>
<path d="M26.0903 49.0483V48.5151H27.4165C27.674 48.5151 27.8813 48.4741 28.0386 48.3921C28.1981 48.3078 28.3143 48.1927 28.3872 48.0469C28.4624 47.901 28.5 47.7347 28.5 47.5479C28.5 47.377 28.4624 47.2163 28.3872 47.0659C28.3143 46.9155 28.1981 46.7936 28.0386 46.7002C27.8813 46.6068 27.674 46.5601 27.4165 46.5601H26.2407V51H25.5776V46.0234H27.4165C27.7925 46.0234 28.1104 46.0884 28.3701 46.2183C28.6299 46.3481 28.827 46.527 28.9614 46.7549C29.0959 46.9827 29.1631 47.2448 29.1631 47.541C29.1631 47.86 29.0959 48.1323 28.9614 48.3579C28.827 48.5835 28.6299 48.7555 28.3701 48.874C28.1104 48.9902 27.7925 49.0483 27.4165 49.0483H26.0903ZM30.5952 51H29.9561V45.75H30.5952V51ZM33.7842 48.4639C33.7842 48.2428 33.7181 48.0674 33.5859 47.9375C33.4561 47.8053 33.2635 47.7393 33.0083 47.7393C32.8511 47.7393 32.7121 47.7666 32.5913 47.8213C32.4728 47.876 32.3805 47.9478 32.3145 48.0366C32.2484 48.1255 32.2153 48.2223 32.2153 48.3271H31.5762C31.5762 48.1494 31.6366 47.9774 31.7573 47.811C31.8781 47.6424 32.0479 47.5046 32.2666 47.3975C32.4876 47.2881 32.7474 47.2334 33.0459 47.2334C33.3148 47.2334 33.5529 47.279 33.7603 47.3701C33.9676 47.4613 34.1294 47.5991 34.2456 47.7837C34.3641 47.966 34.4233 48.195 34.4233 48.4707V50.1934C34.4233 50.3164 34.4336 50.4474 34.4541 50.5864C34.4769 50.7254 34.5099 50.8451 34.5532 50.9453V51H33.8867C33.8548 50.9271 33.8298 50.8302 33.8115 50.7095C33.7933 50.5864 33.7842 50.4725 33.7842 50.3677V48.4639ZM33.9004 49.2021H33.2646C32.9046 49.2021 32.6266 49.2591 32.4307 49.373C32.2347 49.487 32.1367 49.6579 32.1367 49.8857C32.1367 50.0635 32.196 50.2139 32.3145 50.3369C32.4352 50.46 32.6107 50.5215 32.8408 50.5215C33.0345 50.5215 33.2054 50.4805 33.3535 50.3984C33.5016 50.3164 33.619 50.215 33.7056 50.0942C33.7922 49.9735 33.8389 49.8573 33.8457 49.7456L34.1191 50.0498C34.1032 50.1455 34.0599 50.2515 33.9893 50.3677C33.9186 50.4839 33.8241 50.5955 33.7056 50.7026C33.5894 50.8075 33.4504 50.8952 33.2886 50.9658C33.1291 51.0342 32.9491 51.0684 32.7485 51.0684C32.4979 51.0684 32.278 51.0205 32.0889 50.9248C31.902 50.8268 31.7562 50.6947 31.6514 50.5283C31.5488 50.362 31.4976 50.1774 31.4976 49.9746C31.4976 49.5758 31.6479 49.2739 31.9487 49.0688C32.2495 48.8615 32.654 48.7578 33.1621 48.7578H33.8936L33.9004 49.2021ZM36.0571 51H35.418V47.3018H36.0229L36.0571 48.0913V51ZM35.6401 48.9971C35.6447 48.6598 35.7096 48.359 35.835 48.0947C35.9603 47.8281 36.1346 47.6185 36.3579 47.4658C36.5835 47.3109 36.8455 47.2334 37.144 47.2334C37.3879 47.2334 37.5975 47.279 37.7729 47.3701C37.9507 47.459 38.0874 47.6014 38.1831 47.7974C38.2811 47.9933 38.3301 48.2531 38.3301 48.5767V51H37.6909V48.5698C37.6909 48.3761 37.6624 48.2201 37.6055 48.1016C37.5508 47.9831 37.4688 47.8976 37.3594 47.8452C37.25 47.7905 37.1156 47.7632 36.9561 47.7632C36.7988 47.7632 36.6564 47.7962 36.5288 47.8623C36.4012 47.9284 36.2907 48.0195 36.1973 48.1357C36.1038 48.252 36.0321 48.3853 35.9819 48.5356C35.9318 48.6838 35.9067 48.841 35.9067 49.0073L35.6401 48.9971Z" fill="#001FCC"/>
</svg>
