<?xml version="1.0" standalone="no"?>
<!DOCTYPE svg PUBLIC "-//W3C//DTD SVG 20010904//EN"
 "http://www.w3.org/TR/2001/REC-SVG-20010904/DTD/svg10.dtd">
<svg version="1.0" xmlns="http://www.w3.org/2000/svg"
 width="1013.000000pt" height="1013.000000pt" viewBox="0 0 1013.000000 1013.000000"
 preserveAspectRatio="xMidYMid meet">
<metadata>
Created by potrace 1.14, written by Peter Selinger 2001-2017
</metadata>
<g transform="translate(0.000000,1013.000000) scale(0.100000,-0.100000)"
fill="#000000" stroke="none">
<path d="M4660 9759 c-614 -53 -1207 -221 -1745 -494 -952 -483 -1691 -1236
-2150 -2190 -84 -174 -191 -430 -201 -485 l-6 -30 2993 -2 2994 -3 5 -1402 5
-1403 26 33 c14 17 151 187 304 377 153 190 409 509 571 710 161 201 429 534
595 740 166 206 389 483 495 615 106 132 319 397 474 588 l280 349 -47 86
c-538 993 -1360 1740 -2383 2165 -412 171 -805 272 -1290 333 -148 19 -758 27
-920 13z"/>
<path d="M3215 5870 c-187 -232 -558 -693 -824 -1024 -266 -330 -589 -731
-717 -891 -128 -159 -304 -378 -391 -486 -413 -512 -473 -587 -473 -598 0 -7
37 -79 81 -159 361 -652 897 -1235 1514 -1646 664 -442 1370 -695 2180 -782
223 -24 720 -24 935 -1 620 69 1135 219 1670 487 627 313 1190 778 1630 1345
280 361 516 786 686 1232 24 64 42 118 40 120 -9 10 -686 12 -3213 13 l-2773
0 -2 1407 -3 1406 -340 -423z"/>
</g>
</svg>
