<svg width="15" height="15" viewBox="0 0 15 15" fill="none" xmlns="http://www.w3.org/2000/svg">
<path d="M7.06012 12.9433C7.83288 12.9443 8.59822 12.7926 9.31215 12.4968C10.0261 12.2011 10.6745 11.7672 11.2202 11.22C11.7674 10.6743 12.2013 10.0259 12.497 9.31195C12.7927 8.59802 12.9445 7.83268 12.9435 7.05992C12.9445 6.28716 12.7927 5.52183 12.497 4.8079C12.2013 4.09397 11.7674 3.44551 11.2202 2.8998C10.6745 2.35266 10.0261 1.91875 9.31215 1.62302C8.59822 1.32729 7.83288 1.17556 7.06012 1.17656C6.28736 1.17558 5.52203 1.32731 4.8081 1.62304C4.09416 1.91877 3.44571 2.35267 2.9 2.8998C2.35287 3.44551 1.91897 4.09397 1.62324 4.8079C1.32751 5.52183 1.17578 6.28716 1.17676 7.05992C1.17576 7.83268 1.32749 8.59802 1.62322 9.31195C1.91895 10.0259 2.35285 10.6743 2.9 11.22C3.44571 11.7672 4.09416 12.2011 4.8081 12.4968C5.52203 12.7925 6.28736 12.9443 7.06012 12.9433Z" fill="white" stroke="white" stroke-width="1.76501" stroke-linejoin="round"/>
<path d="M4.70703 7.06004L6.47204 8.82504L10.0021 5.29503" stroke="#001FCC" stroke-width="1.76501" stroke-linecap="round" stroke-linejoin="round"/>
</svg>
