<svg width="14" height="14" viewBox="0 0 14 14" fill="none" xmlns="http://www.w3.org/2000/svg">
<path d="M7.15289 13.0033C7.92565 13.0043 8.69099 12.8526 9.40492 12.5569C10.1189 12.2611 10.7673 11.8272 11.313 11.2801C11.8602 10.7344 12.2941 10.0859 12.5898 9.37199C12.8855 8.65806 13.0372 7.89272 13.0362 7.11996C13.0372 6.34721 12.8855 5.58187 12.5898 4.86794C12.294 4.15401 11.8601 3.50555 11.313 2.95984C10.7673 2.4127 10.1189 1.97879 9.40492 1.68306C8.69099 1.38733 7.92565 1.23561 7.15289 1.23661C6.38013 1.23562 5.6148 1.38735 4.90087 1.68308C4.18694 1.97881 3.53848 2.41271 2.99277 2.95984C2.44564 3.50555 2.01174 4.15401 1.71601 4.86794C1.42028 5.58187 1.26855 6.34721 1.26954 7.11996C1.26853 7.89272 1.42026 8.65806 1.71599 9.37199C2.01172 10.0859 2.44563 10.7344 2.99277 11.2801C3.53848 11.8272 4.18694 12.2611 4.90087 12.5568C5.6148 12.8526 6.38013 13.0043 7.15289 13.0033Z" fill="#001FCC" stroke="#001FCC" stroke-width="1.76501" stroke-linejoin="round"/>
<path d="M4.7998 7.12008L6.56481 8.88509L10.0948 5.35507" stroke="#F3F3F3" stroke-width="1.76501" stroke-linecap="round" stroke-linejoin="round"/>
</svg>
